<svg id="Layer_1" data-name="Layer 1" xmlns="http://www.w3.org/2000/svg" viewBox="0 0 998.48 717.85"><title>apneehatti_logo_white</title><path d="M620.55,381.78c-1.92-15.89-5-28.08-10.55-41.5a59.8,59.8,0,0,1-2.46-7.35c-.87-3.29-.87-3.79-.28-6.08a14.86,14.86,0,0,0,.55-2.55c0-.09-2.78,2.51-6,5.7s-8.18,7.95-11,10.55C583,348,578.32,353.24,576,357.4c-.37.64-1.1,1.82-1.6,2.55a46.39,46.39,0,0,0-3.24,5.48c-.59,1.24-1.73,3.29-2.42,4.57s-1.78,3.15-2.33,4.2a11,11,0,0,1-1.64,2.46,1.66,1.66,0,0,0-.64,1,8.91,8.91,0,0,1-1.74,2.47l-1.68,1.92-3.66-.41c-4.84-.6-8.53-1.65-9.36-2.74l-3-4.16c-2.2-3.15-4.2-5.89-5.39-7.3-2-2.38-4.34-6.35-10.73-17.81a29,29,0,0,0-2.19-3.47c-1.23-1.69-6.58-12.78-6.58-13.69a7.25,7.25,0,0,0-1.14-2.1,6.7,6.7,0,0,1-1.14-2.24,14.11,14.11,0,0,0-1.09-2.88,21.48,21.48,0,0,1-1.42-4.06,4.32,4.32,0,0,0-2-3,59,59,0,0,1-8.26-8.31c-.64-.87-2.51-3.1-4.16-5a40.1,40.1,0,0,1-5.61-8.73c-1.46-2.87-2.83-5.57-3.06-5.93A80.78,80.78,0,0,1,487,279.19a20.75,20.75,0,0,0-5.76-9.54,42.05,42.05,0,0,1-3-3.29,66.93,66.93,0,0,0-8-10.27c-2.78-2.92-6.66-7.22-8.63-9.54-1.78-2.15-9.95-14.2-10.4-15.48s-1.92-1.83-4.94-1.37c-3.88.55-10.54,3.51-13,5.75a5.57,5.57,0,0,1-2.1,1.23,8.11,8.11,0,0,0-2.23,1.19,3.56,3.56,0,0,1-1.69.87,4.69,4.69,0,0,0-1.92,1.14c-1.83,1.51-2.51,1.46-2.19-.14.18-.68.5-2.37.73-3.74s.86-4,1.37-5.89a36.53,36.53,0,0,0,.91-4c0-1.41,2-5.16,2.79-5.16,1,0,2.69,2.29,2.69,3.56a2.89,2.89,0,0,0,1.14,1.83,5.93,5.93,0,0,1,1.55,2.06,3.69,3.69,0,0,0,1.42,1.68c.87.46.91.37.91-1.41a4.83,4.83,0,0,0-.91-3,4.3,4.3,0,0,1-.92-2,2,2,0,0,0-.91-1.42c-1.23-.77-1.14-2.65.23-3.92a6.33,6.33,0,0,0,1.42-2.65c.54-2.92,1.27-2.65,5.2,2.1,1.64,2,3.24,3.6,3.56,3.6s.55,0,.55-.09-.41-2.05-.91-4.43a42.6,42.6,0,0,1-.92-6.84c0-2.74.32-2.2-5.43-8.68-1.46-1.64-3.74-4.24-5-5.84s-4.66-5.39-7.44-8.45-5.35-6.07-5.76-6.71a32.67,32.67,0,0,0-2.78-3.42c-3.88-4.3-10.46-11.87-13.29-15.3-1.55-1.87-4.61-5.34-6.75-7.71s-4.43-5-5-5.8a13.85,13.85,0,0,0-7.39-5.16c-2.61-.55-5.12,0-8,1.92-1,.68-2.56,1.69-3.43,2.23-2.46,1.65-12.28,11.65-15.29,15.62a85.4,85.4,0,0,0-8.45,13.51c-.82,1.64-1.78,3.65-2.19,4.52a37.43,37.43,0,0,1-4.56,5.57c-5.07,5.39-5.39,5.75-6.67,9.13-.59,1.6-1.37,3.56-1.69,4.39a2.73,2.73,0,0,0,0,2.6c.77,1.78,2.14,1.5,3.51-.64,1.23-1.92,4.11-4.89,9.41-9.63,3.19-2.93,5.93-6.49,6.57-8.63a11.88,11.88,0,0,1,1.42-2.74,6.94,6.94,0,0,0,1.09-2.06,4.31,4.31,0,0,1,2.47-2.51c.5,0,2,1,4.61,3.11.82.64,13.69,11.68,14.2,12.19.27.22,1.23.95,2.14,1.59a4.9,4.9,0,0,1,1.87,2.06c.1.5.55,2.33,1,4.11s1.14,5.48,1.6,8.31a38.24,38.24,0,0,0,1.1,5.52,35.37,35.37,0,0,1,1,4.06,19.28,19.28,0,0,0,1.14,4.07,47.57,47.57,0,0,1,2.15,5.93,60.77,60.77,0,0,0,2.51,6.81,16,16,0,0,1,1,3.19,9,9,0,0,0,1.14,3,14.55,14.55,0,0,1,1.33,3.56,19.33,19.33,0,0,0,1.41,4.06,8.48,8.48,0,0,1,.92,3.15c0,1.28,2,4.43,3.19,5.21.6.36-7.12,8.12-25.79,25.88a18.67,18.67,0,0,1-2.88,2.42c-.18,0-.59-.54-.87-1.27a26.35,26.35,0,0,0-2-3.52c-.78-1.23-1.51-2.6-1.69-3a13,13,0,0,0-1.32-2.05,12.63,12.63,0,0,1-1.51-3.06,6.31,6.31,0,0,0-1.19-2.19,3.58,3.58,0,0,1-.86-1.74,24.22,24.22,0,0,0-1.28-3.28c-4.8-10.37-5.07-11-5.85-13.7-.5-1.87-1.05-2.74-2.14-3.47-2.7-1.78-4.16-3.24-7.26-7.08-1.69-2.1-4.25-5.2-5.71-6.85-3.74-4.24-11.37-19.12-13.69-26.79-.73-2.33-3.47-6.44-5.85-8.77a47.17,47.17,0,0,1-4.38-5.48,56.4,56.4,0,0,0-5.48-6.76c-5.75-6.07-7.08-7.58-9.68-11-3.88-5.11-8.31-11.5-9-13.15-1.09-2.37-2.28-2.92-5.52-2.46a22.18,22.18,0,0,0-4.8,1.32,23.46,23.46,0,0,1-3.24,1.23,4.24,4.24,0,0,0-1.78,1,1.59,1.59,0,0,1-1,.64,6.48,6.48,0,0,0-2.14,1.28,37.76,37.76,0,0,1-4.84,2.83,15.91,15.91,0,0,0-3.79,2.37,1.89,1.89,0,0,1-1.23.83,5,5,0,0,0-1.92,1.09,33.9,33.9,0,0,1-5.62,3.47,29,29,0,0,0-3.51,2.6,23.42,23.42,0,0,1-3.38,2.42,19.38,19.38,0,0,0-2.92,1.88c-1,.73-2.56,1.82-3.47,2.42a42.11,42.11,0,0,0-4.57,4.29c-3.19,3.42-18.22,18.12-32.64,31.82-4.75,4.52-11.83,11.28-15.75,15.07-18.68,18-24.61,23.64-27.35,25.93a60.76,60.76,0,0,0-4.84,4.52c-1.95,2.11-5.15,5.2-8.16,8a2.38,2.38,0,0,1-.92,2.5,156.65,156.65,0,0,1-15.52,9.7,3.35,3.35,0,0,1-2.14,1.4,1.72,1.72,0,0,0-.33,0l-.42.25c-.28.4-.3,1.42-.3,4.1,0,3.84.09,4.34.82,4.3a.63.63,0,0,1,.78.54v0a2,2,0,0,1,.84.91,5,5,0,0,1,.89-.71c3.52-2.28,18.67-13.69,23.88-18a45.24,45.24,0,0,1,5.93-4.42c.78,0,.1,4.84-1,6.89a23.46,23.46,0,0,0-1.32,6.44c-.28,2.55-.69,5.84-1,7.21-1,5.71-1,7,0,9.59s2.1,4.11,3,4.11c.32,0,1.55-2,2.79-4.43a26.12,26.12,0,0,1,5.43-7.67c3.24-3.2,4.15-3.79,12-7.76,4-2,4.84-2.7,11.83-9.64,8.49-8.49,8.81-9.08,6-11.46a34,34,0,0,0-7-4.42c-2-.87-3.24-2.52-4.38-6.12l-1-3.06,1.6-1.37c.87-.73,3.66-3,6.26-5s6.85-5.44,9.49-7.58c4.93-3.93,13.7-10.64,16.81-12.74q5-3.42,5.47-5.61a14.47,14.47,0,0,1,1.15-3.06,7.14,7.14,0,0,0,.86-2c0-1,6.58-13.43,9.18-17.4,2-3,8.13-9.81,8.86-9.81,1,0,.86,1.32-.23,3.42a8.06,8.06,0,0,0-.91,2.6,10.14,10.14,0,0,1-1.15,2.93A11.64,11.64,0,0,0,245,201a45.51,45.51,0,0,1-3,5.3c-2.92,4.75-5.7,10.18-5.7,11.09a73.85,73.85,0,0,1-3.7,8.77c-.46,1-1.46,3.38-2.24,5.25a55,55,0,0,1-5.11,10,3.87,3.87,0,0,0-.82,1.55,2.56,2.56,0,0,1-.78,1.32c-.82.92-2.74,5.3-3.38,7.67-.45,1.88-.55,16-.09,23,.23,4,.41,5,1.1,5.29a1,1,0,0,0,1.41-.18h0c.78-.73,2.42-8.13,3.11-13.7a19.7,19.7,0,0,1,1.69-6.39c1.69-3.2,5.93-8.22,12.09-14.2A102.18,102.18,0,0,1,250,236.45c1.1-.87,3.47-3,5.3-4.7,4.38-4.06,5.62-4,2.42.18-3.65,4.7-2.83,9.22,2.28,12.74a11.67,11.67,0,0,0,3.79,1.83,4.55,4.55,0,0,0,2.6-1.56c1.37-1.41,1.51-1.78,1.28-3.33a5.71,5.71,0,0,0-1.69-3c-2.28-2.15-2.42-4.29-.32-5.44a92.72,92.72,0,0,1,9.27-4.47,7.14,7.14,0,0,0,2-1.6c1.74-1.78,3-2.14,2.51-.68a36.44,36.44,0,0,1-2.05,3.79c-2.29,3.6-9.59,16.57-9.59,17a23.32,23.32,0,0,1-1.14,2.79,12.63,12.63,0,0,0-1.14,3.28,20.87,20.87,0,0,1-.92,3.66c-1.87,5.89-.73,14.65,2.24,17.94,3.79,4.15,7,4.15,11.55.14,2.6-2.33,3.75-2.42,5.66-.6a8.21,8.21,0,0,1,1.88,2.7,13.41,13.41,0,0,0,1.09,2.73,51.13,51.13,0,0,1,3.61,10.73c.5,2,1.09,4.39,1.37,5.25.5,1.69,1.37,12.1,1.37,16.71,0,2.7,0,2.88-2.06,4.84-3.38,3.38-3.7,5.21-1.41,7.49a4.13,4.13,0,0,0,3.79,1.55c2.42,0,4-.86,8.31-4.56,2.83-2.38,4.38-4.48,6.71-9,2-4,2.69-4.07,4.06-.64s1.92,3.83,3.88,3.29c2.65-.78,3-2.42,1.14-5.85a9.5,9.5,0,0,1-1.14-3.06,7.87,7.87,0,0,0-.91-2.65,24,24,0,0,1-1.6-4.29c-.59-2.23-.59-2.92,0-5.8a50.4,50.4,0,0,0,.68-8.81c0-8.53,1.15-7.8,3.38,2.06a44.71,44.71,0,0,0,3.88,10.77c1.92,4,2.79,6.39,3,8.31.18,1.46.68,5.21,1.18,8.27a79.31,79.31,0,0,1,.87,9.49v3.93L324.81,330c-1.33,1.19-5.48,5.16-9.27,8.82-8.22,8-10.41,10-14.88,13-5.16,3.56-22.24,18.76-26.71,23.78-2.19,2.47-6.71,8-10.05,12.33-6.66,8.54-9.22,11-17.76,17-3,2.15-7.53,5.3-10,7A144.43,144.43,0,0,0,221,423.68c-1.5,1.42-5.48,4.75-8.81,7.45a84.3,84.3,0,0,0-7.67,6.75A150.58,150.58,0,0,1,188.8,453l-3.88,3-.59,3.06a34.17,34.17,0,0,1-1.19,4.89l-.59,1.82,2.78-.27c1.55-.14,5.43-.37,8.68-.55l5.79-.27,1.46-1.65a68.88,68.88,0,0,0,4.11-5.79c2.65-4,6.08-8,6.9-8a40.89,40.89,0,0,0,5.07-3.29c19.58-14,36.15-28.81,41.91-37.58a28.39,28.39,0,0,1,6-7c4.29-3.47,7-6.85,8.26-10.32a21,21,0,0,1,3.52-5.89c1.37-1.6,4.52-5.52,7-8.72s5-6,5.57-6.34c1.23-.69,7.53-4.89,8.22-5.57s4-3.11,10.68-8.09c3.15-2.32,7.58-5.84,9.91-7.8a26.5,26.5,0,0,1,4.75-3.52c.82,0,.14,4.66-1,6.9a19.87,19.87,0,0,0-1.37,6.48c-.27,2.56-.68,5.8-.91,7.17-1.1,5.84-1.1,7,.23,10.31,1.73,4.43,3,5,4.15,2.1,2.69-6.84,7.17-12.37,12.1-15l6.89-3.6c4.16-2.19,5.07-2.92,11.74-9.64,4-4,7.35-7.67,7.53-8.21.55-1.74-3.88-5.67-8.58-7.63a7.68,7.68,0,0,1-4.16-5.61,5.22,5.22,0,0,0-.73-2.24c-1.28-.78-.73-1.28,13.74-12.6,2.15-1.69,5.76-4.52,8-6.3,4.84-3.84,9.13-7.08,11.42-8.68,4.61-3.19,5.43-3.92,6-5.7.32-1,.92-2.47,1.24-3.2a18.67,18.67,0,0,0,1-2.74,9.35,9.35,0,0,1,1.1-2.51,9.18,9.18,0,0,0,1.14-2.28,12.25,12.25,0,0,1,1.41-2.74,8.44,8.44,0,0,0,1.1-2,38.2,38.2,0,0,1,2.51-4.56c2.65-4.52,9.13-12.33,10.41-12.56,1.05-.22,1,1.1-.14,3.34a8.28,8.28,0,0,0-.91,2.74,5.53,5.53,0,0,1-.91,2.28,5.36,5.36,0,0,0-.92,2.05,32.13,32.13,0,0,1-3.06,5.71c-4,6.62-5.57,9.59-6.34,12.1a28.27,28.27,0,0,1-1.55,3.88,8.07,8.07,0,0,0-.92,2.51,3.26,3.26,0,0,1-.64,1.64,21.26,21.26,0,0,0-1.6,3.29c-.54,1.33-1.36,3.33-1.82,4.52a73.67,73.67,0,0,1-4.93,9.18c-.6.91-1.78,3.24-2.74,5.11L380,322.06l-.14,9.58c-.23,12.19.23,18.9,1.33,19.59.59.36,1,.32,1.27,0,.87-.87,2.29-6.94,3-12.6.78-6.35,1.74-8.49,6-13.61a185.33,185.33,0,0,1,18.9-18.35c2.88-2.42,5.85-5,6.58-5.8,1.41-1.46,2.56-1.82,2.56-.87a8.71,8.71,0,0,1-1.6,2.56c-3.06,3.88-3.2,7.49-.37,10.64,1.65,1.82,5.07,4.06,6.26,4.06a6.39,6.39,0,0,0,2.33-1.41c2.14-1.88,2.14-3.47,0-5.8s-2.65-3.84-1.92-4.84c.59-.82,5.29-3.93,5.93-3.93,1,0,6.17-2.78,7.13-3.83,2.19-2.33,3.1-1.1,1.27,1.6s-4.74,7.76-8.26,14.24c-.59,1-1.28,2.37-1.55,2.83-2.7,4.93-5.12,13.7-5.12,18.63,0,3.56,1.19,8.35,2.56,10.27a12.7,12.7,0,0,0,2.6,2.42c3,2.15,5.8,1.64,9.55-1.69,2.55-2.33,3.74-2.42,5.66-.59a8.11,8.11,0,0,1,1.78,2.42,33,33,0,0,0,1.32,3.47c2.19,5.06,3.47,8.72,3.47,9.72a19.12,19.12,0,0,0,.64,3.52,128.19,128.19,0,0,1,2.1,18.81c0,3.15,0,3.15-2,5.06s-3,3.66-3,5.21a5.54,5.54,0,0,0,1.55,2.24,4.13,4.13,0,0,0,3.79,1.55c2.42,0,3.93-.82,8.22-4.48a27.15,27.15,0,0,0,6.94-9.35c1.87-3.7,2.65-3.79,3.83-.55a10.4,10.4,0,0,0,1.65,3.1c.68.73,1,.73,2.6.23s1.78-.82,1.92-2.05a8.19,8.19,0,0,0-1-3.75,12.78,12.78,0,0,1-1.19-3,13.74,13.74,0,0,0-1.23-3.33c-1.41-2.88-1.41-2.65-.82-16.44.18-4.29.55-7.85.78-7.85.64,0,1.64,2.78,2.42,6.53,1.23,5.89,2.55,10.27,3.37,11.14,1.42,1.5,3.61,6.89,3.93,9.58.18,1.46.64,4.48,1,6.76s.82,6.8.95,10.09c.32,5.39.46,6.07,1.47,7.4,1.23,1.55,2.6,2.23,3.24,1.59a8.43,8.43,0,0,0,.73-2.87c.5-3.47,1.82-4.11,8.17-4.11a26.94,26.94,0,0,0,7-.73c2.15-.64,2.47-.87,3.29-2.74a11.86,11.86,0,0,0,.87-3.2,31.34,31.34,0,0,0-1.92-7.94,43.43,43.43,0,0,1-1.32-4.34,13.37,13.37,0,0,0-1.05-2.74,14.47,14.47,0,0,1-1.19-2.74,14,14,0,0,0-1.19-2.83c-.86-1.37-3.06-7.94-2.74-8.22s3.11,2.11,4.66,4.16a48.7,48.7,0,0,0,4.61,4.7c3,2.65,3.43,2.92,5,2.79,1.37-.09,1.79-.37,2.15-1.33s.05-1.91-1.55-5.25a33.65,33.65,0,0,1-2-4.75c-.05-.63-.5-1.68-3-7.07-2.65-5.71-3.66-8-3.66-8.36a13.39,13.39,0,0,0-1.23-2.92c-.73-1.37-1.78-3.61-2.37-5s-1.56-3.42-2.15-4.56a11.21,11.21,0,0,1-1.09-2.69,15,15,0,0,0-1.19-3.11c-.64-1.41-1.51-3.42-2-4.43-1-2.14-2.52-5.48-4.84-10.5-1-2-2.1-4.47-2.56-5.48-1.74-3.88-4.2-8.76-5.48-10.95-.73-1.28-1.69-3-2.15-3.89s-1.41-2.64-2.1-3.88-2.23-4.15-3.42-6.39-3.29-6.21-4.66-8.76c-2.33-4.43-2.64-5.94-1-4.89,1,.64,4.39,6.12,7.63,12.37,1.41,2.7,3.47,6.26,4.52,7.9a80.24,80.24,0,0,1,4.38,7,29.44,29.44,0,0,0,1.83,3.06c1,1.6,2.24,3.65,2.74,4.52s2.1,3.43,3.51,5.71,3,5,3.61,6c1.1,2.1,3.83,6.57,6.8,11.14,1,1.64,3,4.79,4.34,7.08s2.88,4.84,3.42,5.7,1.88,3,2.93,4.8c2.42,4.06,2.78,4.7,3.92,6.39a41.93,41.93,0,0,1,2.28,4,25.5,25.5,0,0,0,2.29,3.69c.5.55,2,2.74,3.38,4.84,6,9.32,8.26,13.15,9.22,15.39a19.88,19.88,0,0,0,2.69,4.2,12.91,12.91,0,0,1,1.83,2.51,10.72,10.72,0,0,0,1.32,2.24,66.58,66.58,0,0,1,4.29,7.17c.73,1.37,1.78,3.1,2.33,3.88a29.41,29.41,0,0,1,3.93,7.3,13.22,13.22,0,0,0,.91,2.28,8.25,8.25,0,0,1,.87,2.42,18.38,18.38,0,0,0,3.51,5.48,37.22,37.22,0,0,1,3.61,4.93c.78,1.74,3.61,4.3,4.7,4.3.92-.05,3.75-1.74,11.74-7.17a67.08,67.08,0,0,1,5.93-3.79,34,34,0,0,0,3.43-2.28c5.25-3.75,5.84-3.06,2.1,2.55-2.7,4.11-6.44,10.69-6.44,11.32a9.26,9.26,0,0,0,3.24,1.19,40.35,40.35,0,0,1,6.3,2.33,13.66,13.66,0,0,0,3.15,1.28c.28-.32,3.79-6.9,6.48-12a41.8,41.8,0,0,0,3.47-8.86,14.65,14.65,0,0,1,2.74-6.35,12.38,12.38,0,0,1,2.47-2.65c.32-.09,1.09-1.64,1.64-3.28a11,11,0,0,1,3.56-5.44l2.52-2.42Z" transform="translate(-43.65 -142.71)"/><path d="M539.69,213.81c-1.69.55-3.24,1.42-7,4-3.15,2.19-6.8,5.84-11.46,11.37-6.58,7.8-7.35,8.76-7.35,9.36a2,2,0,0,1-.69,1.09,9.75,9.75,0,0,0-1.59,2.47c-.51,1-1.65,3.19-2.52,4.84a20.39,20.39,0,0,0-1.59,3.47c0,.82-2.83,4.33-6.62,8.31-4,4.15-4.39,4.74-5.39,7.85-.37,1.14-1,2.92-1.42,4-.54,1.46-.59,2.19-.27,2.83.78,1.46,2.24,1.14,3-.64.36-.87,3.24-4,6.85-7.4,5.7-5.39,7.21-7.12,8.81-10.09.27-.55.87-1.6,1.23-2.33s1.1-2.14,1.6-3.28a7.87,7.87,0,0,1,1.5-2.38,2.92,2.92,0,0,1,3.38.46,14.77,14.77,0,0,0,2,1.55c.64.41,4.47,3.61,8.58,7.17s7.58,6.44,7.76,6.44a7.35,7.35,0,0,1,1.83,1.41,3.72,3.72,0,0,1,1.46,3.52,20.46,20.46,0,0,0,.91,5,19.72,19.72,0,0,1,.91,4.56,20.72,20.72,0,0,0,.74,4.43c.36,1.51,1,4,1.36,5.48a44.52,44.52,0,0,0,1.51,4.8c.5,1.14,1.55,4.2,2.38,6.8a52.34,52.34,0,0,0,2.32,6.34,8.65,8.65,0,0,1,.83,3.11,5,5,0,0,0,1,2.78,7.16,7.16,0,0,1,1.37,3.43,11.58,11.58,0,0,0,1.23,3.65,7.26,7.26,0,0,1,.91,3.15,5.26,5.26,0,0,0,1.42,3.43c1.69,2.14,2.1,2.41,3.19,2.14,1.33-.36,1.33-3,0-4.47a7.57,7.57,0,0,1-1.14-3.29,6.09,6.09,0,0,0-1.15-3.11,5.26,5.26,0,0,1-1.09-2.87,23.5,23.5,0,0,0-1.14-4.2,30.06,30.06,0,0,1-1.42-6.85c-.27-2.65-.82-6.53-1.19-8.67a55.09,55.09,0,0,1-.63-7.58c0-4,.18-4.29,2.42-4.29s5.38-3.84,6.48-7.58c.68-2.42.77-2.51,2.19-2.38,1.23.14,1.46.32,1.6,1.51a31.58,31.58,0,0,0,1.05,4.29,25.48,25.48,0,0,1,.87,5.89,45.74,45.74,0,0,0,1.09,7.81c.64,2.65,1.32,6.39,1.55,8.26,1.19,9.59,3.61,20.41,4.93,21.87s3.88-1.32,4.71-5.07a28.85,28.85,0,0,1,1.37-4,23.08,23.08,0,0,0,1.23-4.79,28.34,28.34,0,0,1,.91-4.47,36.15,36.15,0,0,0,1.1-4.48c.64-3.56,2.19-6.8,3.24-6.8s2.69,2.1,2.69,3.47a3,3,0,0,0,1.14,1.92,6,6,0,0,1,1.56,2.05,3.75,3.75,0,0,0,1.41,1.69c.87.46.92.37.92-1.41a4.88,4.88,0,0,0-.92-3,4.29,4.29,0,0,1-.91-2,2,2,0,0,0-.91-1.41,2.45,2.45,0,0,1,0-3.79,7,7,0,0,0,1.46-2.83c.54-2.33,1.64-2.6,3.1-.73.55.73,2.42,2.74,4.16,4.56s3.15,3.61,3.15,4a.88.88,0,0,0,.64.83c.63.13,9.35,10.45,11.41,13.46,1.46,2.15,1.51,4.07.18,5.53-1,1-1,1.09-.14.87,4-1.14,4.94-1.24,8.63-.83,4.3.51,8,.1,10.32-1.09a40.8,40.8,0,0,1,5.71-1.83l4.2-1.09,3.56.91a15.32,15.32,0,0,1,8.54,5.11l1.64,1.83,1.42-1.55c1.82-2,5-8.4,6-12.28,2.56-9.36,2.65-9.59,4-9.59a8.67,8.67,0,0,1,2.74,1.37,8.39,8.39,0,0,0,2.83,1.37c.73,0,9.5,10,11.78,13.42l1.64,2.37c1.14,1.74,6.71,9.09,8.31,11.1,1.87,2.33,1.74,4.66-.41,7.85-3.83,5.57-8.13,11.46-13,17.67-2,2.6-10.36,15.43-10.73,16.53-.27.77-.14,2.69.41,5.7,1,5.12,1.14,5.3,4.61,4.39,2.38-.69,3.24-2.47,2.19-4.52a6.26,6.26,0,0,1-.73-2.06c0-1.09,2.65-5.89,5.85-10.59l3.1-4.56,2.74-.23c3-.28,5.12-1.37,9.91-5.25,3.93-3.11,13.15-12.19,19-18.63a54.61,54.61,0,0,1,5.25-5.34c.68,0-.14,9.4-1.15,13.92-1.23,5.21-2.51,7.49-5.88,10.09a12.55,12.55,0,0,0-2.93,3c-.32,1,.51,2.69,1.33,2.69a3.42,3.42,0,0,1,1.64.83l1,.82-2.83,5.7c-3,6-4.79,9.32-5.48,10.19-.23.27-1.28,2.14-2.33,4.15s-2.51,4.57-3.19,5.71-1.87,3-2.51,4.11-2.19,3.6-3.43,5.47c-2.74,4.11-3.42,5.39-3.06,5.76a19.54,19.54,0,0,0,3.84.5l3.61.27,2.78-2.6c3-2.78,11.23-9.68,13.83-11.64.87-.64,3.15-2.42,5-3.93s4.93-3.79,6.75-5c3.79-2.6,6.49-4.57,10.64-7.67,6.8-5.07,9.36-6.76,10.27-6.62.55.09,3.06,2.47,5.8,5.48s7.49,7.76,10.73,10.68c3.84,3.56,5.84,5.75,5.94,6.49a4.81,4.81,0,0,1-1,2.73A29,29,0,0,0,775,389c-.91,1.74-2.55,4.48-4.06,6.8-2.51,3.88-3.29,5.48-2.65,5.66.32.1,2,.55,3.74.92a13.27,13.27,0,0,1,5.16,2.33c2.06,1.55,5.16,5.25,5.16,6.11,0,1.1.78.32,2.51-2.51,1-1.64,2.38-3.83,3.06-4.88s1.69-2.65,2.19-3.52,1.74-2.74,2.74-4.11a14.54,14.54,0,0,0,1.78-2.83c0-.5,7.77-11.82,8.77-12.92.64-.64,1-.73,1.37-.36.64.64,0,4.38-1.87,11.09-.82,2.88-2,7-2.61,9.13s-1.5,5.57-2,7.58a43.7,43.7,0,0,1-1.33,4.93c-.68,1.83-.55,2.92.46,3.93s4.29,1.23,6.71.23c2.92-1.24,3.61-.23,2,3a17.55,17.55,0,0,0-1.32,3.52c-.27,1-1.1,3.47-1.87,5.62-1.6,4.29-2.79,7.94-4.34,13.51a45.43,45.43,0,0,1-1.55,4.66,15.94,15.94,0,0,0-1,3.37,20.25,20.25,0,0,1-1.37,4.11,8.87,8.87,0,0,0-.86,2.15c0,.23,1.64.5,3.65.59l3.61.14.68-2.74c.37-1.51,1-3.79,1.42-5s1.78-5.57,3-9.59c4.07-12.78,5-15.52,5.62-16.48a16.78,16.78,0,0,0,1.28-3.42c.41-1.33,1.46-4.62,2.37-7.26s2-5.71,2.29-6.85c.73-2.42,2.6-7.58,5-13.7.91-2.37,2.19-5.8,2.83-7.53,1.19-3.29,3.33-8.54,4.47-11,.37-.78,1-2.19,1.33-3.2,1.41-4,3-7.07,3.69-7.07s.83.36.23,3.19-2.19,13.88-2.83,20c-.41,3.88-.41,5.38,0,6.25.55,1.28,2,1.6,2.7.59,1.18-1.64,4.52-12.37,5.15-16.61a35.77,35.77,0,0,1,1.1-4.57,41.9,41.9,0,0,0,1.14-4.93c.28-1.51.87-4.29,1.37-6.16s1.42-5.48,2-8,1.51-6,1.92-7.77,1-4.33,1.37-5.7c.82-3.52,1.14-4.11,2.1-4.11.77,0,.82.59.73,10.82-.09,11.46.14,12.92,2,12.92.64,0,1-.41,1.14-1.51.37-1.87,0-29.58-.45-32.18a4,4,0,0,1,.82-3.66,31.38,31.38,0,0,0,2.19-4.33c1.73-4.39,3.2-3.61,8.63,4.52,1.19,1.73,7.49,11,11.91,17.53,3.84,5.61,8.18,11.59,10.09,13.92l6.12,7.54c2.92,3.65,9.45,10.72,14.43,15.75,7.67,7.76,9.86,10.27,8.86,10.27a31.06,31.06,0,0,1-2.83-1.83c-1.51-1.05-3.2-2.19-3.84-2.6-3.51-2.33-13.15-11.78-17.17-16.8-1.23-1.51-2.42-3-2.69-3.24-.68-.73-1.92-2.38-8.08-10.69-6.44-8.67-9.36-11.87-10.78-11.87s-1.82,2-1,3.84c.32.78.87,2.33,1.23,3.47s1,2.88,1.51,3.88,1.64,3.56,2.56,5.71a34,34,0,0,0,2.51,5,3.74,3.74,0,0,1,.87,1.6,8.18,8.18,0,0,0,1.18,2.28c1.33,2,1.33,3-.23,7.13-.82,2.14-.91,3.6-1,10.31a117,117,0,0,0,.63,12.56,169.69,169.69,0,0,1,1.47,17.53c.13,3.52.54,8.45.86,10.91.73,5.25.19,4.48,10,13.29,8.76,7.9,9.49,9.17,10.54,18.95l.5,4.79,2,.14c1.87.13,2.33-.19,1.5-1.05-1.27-1.42-2.37-6.26-3-13.38-.36-4.2-.82-8.63-1-9.86-.19-1.69-.14-2.19.32-2s1.18,2.6,1.91,5.66c2.83,11.87,3.61,14.56,5.12,18.22l1.14,2.74,5.84.27c3.2.18,7.85.46,10.32.59l4.43.28v-7.26c0-14.93,3.24-20.87,12.65-23.29l3.56-.91,3.65.91c4.2,1.1,4.06,1,15.34,10.55,8.08,6.8,10.73,9.68,11.55,12.46.14.51,2.37,3.06,5,5.62,3.69,3.7,5.11,4.79,6.53,5.11,2,.46,6.57.6,6.57.23a72.85,72.85,0,0,0-3.24-6.62c-.23-.36-.82-1.41-1.33-2.28s-1.64-2.74-2.51-4.11-2-3.33-2.46-4.34-1.55-2.87-2.33-4.11-1.78-3.1-2.28-4.11-1.46-2.64-2.06-3.65c-2.6-4.24-6.16-11.37-6.16-12.28,0-1.42-6.39-7.58-13.65-13.19-.92-.69-2.38-1.88-3.24-2.61-2.29-1.91-6.3-5.06-8-6.25-6.48-4.7-11-8.13-11.69-9a25.73,25.73,0,0,0-3.37-2.79c-2.74-2-7.72-6.3-16.9-14.51C908,367.26,894.44,353,889.64,346.35c-.86-1.23-2.14-2.88-2.78-3.65-1.19-1.51-2.83-3.79-7.81-11.05-4.7-6.9-13.88-18.36-17-21.23-2.33-2.1-10.6-1.78-13.56.59-.73.55-2.15,1.6-3.15,2.38s-3.56,2.69-5.62,4.33-4.56,3.56-5.57,4.34c-2.78,2.05-15.38,12.56-20.73,17.26-6.84,6-19.72,19.08-23.05,23.37-4,5.16-6.8,9.82-8,13.11-.37.91-.78,1.27-1.55,1.27s-1.69-.91-3.79-3.88c-1.46-2.14-4-5.66-5.66-7.85a188.15,188.15,0,0,1-11.88-17,163.39,163.39,0,0,1-8.81-15.16c-1.18-2.14-2.6-4.65-3.15-5.52s-2-3.06-3.1-4.89c-3-4.88-6.85-10.59-7.76-11.64a6.54,6.54,0,0,1-1.14-2,3.22,3.22,0,0,0-1.92-1.74c-1.55-.68-1.55-.68-3.47,1.28a17.16,17.16,0,0,1-4,3c-1.14.54-2.38,1.23-2.74,1.46a19.81,19.81,0,0,1-2.29,1.18,54.36,54.36,0,0,0-11.36,7.22c-1.1.91-2.33,1.64-2.7,1.55-.64-.14-3.92-4.29-10.13-12.92-1.37-1.92-3.34-4.57-4.39-5.84s-2.55-3.43-3.42-4.66c-4.15-6.07-11.78-14.52-14.2-15.8-2.19-1.14-5.93-1.14-10.27,0a16.6,16.6,0,0,0-4.66,1.92c-3.06,2.47-3.29,2.6-11.59,6.62a12,12,0,0,1-3,1.1,8.07,8.07,0,0,0-2.56,1.09,18.79,18.79,0,0,1-3,1.42,9.18,9.18,0,0,0-2.28,1.14l-3.7,2.42a38.49,38.49,0,0,0-4.34,3.51,5.79,5.79,0,0,1-2.74,1.83c-.55,0-2.1-1.32-4.34-3.93-1.87-2.14-3.79-4.38-4.29-4.93-5.57-6.25-7.49-8.44-10.73-12.37-2.1-2.51-4.84-5.71-6.12-7.08s-4.42-5-6.89-8-6.76-7.9-9.5-10.91-5.29-6-5.7-6.62a32.09,32.09,0,0,0-2.79-3.47c-6.71-7.44-8.9-9.95-11.55-13.24-3-3.74-11.46-13.33-15.2-17.26C546.68,213.9,543.12,212.72,539.69,213.81Z" transform="translate(-43.65 -142.71)"/><path d="M252.89,244.31a8.45,8.45,0,0,0-1,2.28,6.29,6.29,0,0,1-1.18,2.19,3.45,3.45,0,0,0-.87,1.6,4.16,4.16,0,0,1-1.83,2,15.36,15.36,0,0,0-5.34,7.08,12.62,12.62,0,0,1-1,2.78,21.32,21.32,0,0,0-1.19,3.65c-.45,1.92-.91,2.79-1.46,2.88s-.82-.14-.82-.59c0-.64-1.64-1.6-2.74-1.6-.59,0-1.46,1.73-1.87,3.65a68.06,68.06,0,0,1-3.7,11.73c-1.09,1.88-4.38,4.11-7,4.8s-4,.09-7.17-2.88c-3.84-3.56-5.16-3.06-7.26,2.79-.78,2.14-1.6,4.7-1.83,5.7a36,36,0,0,1-1.32,4.16,24.71,24.71,0,0,0-1.14,5.25c-.19,1.6-.6,4.56-.92,6.57-1,5.57-1.78,17.58-1.46,21.78.23,3.2.41,3.88,1.33,4.61,1.59,1.33,4.2.78,6.25-1.23,2.38-2.33,5.21-8.13,4.84-9.82-.27-1.32-.36-1.37-2.88-1.27s-2.6,0-2.51-1.05.23-2.61,1.51-12.65c.27-2.06.91-5.34,1.37-7.26a29.5,29.5,0,0,0,.91-4.75,3.93,3.93,0,0,1,.64-2.05c.55-.78.78-.78,2.83-.23a26.82,26.82,0,0,0,6.26.55c2.83-.05,4,.09,4,.5a18.56,18.56,0,0,1,0,2.69c-.18,4.57,2.56,10,5.07,10,1.64,0,4.75-3.7,5.84-7s1.23-6.76.46-13.47c-.69-5.89-.18-17,.77-17,.46,0,.64.55.64,1.82,0,3.2,1.14,5.16,4.84,8.18,4,3.28,5.16,5.34,5.53,9.63.32,4-1.46,11.46-3.75,15.61-.86,1.6-2,3.7-2.51,4.71s-1.73,3.15-2.74,4.74a24.78,24.78,0,0,0-1.82,3.11c0,.09-1.42,2.28-3.11,4.88s-3.79,5.89-4.65,7.35l-1.56,2.7L229.1,341c-.18,8.63.37,15.61,1.37,16.8a8.06,8.06,0,0,1,1.28,2.51,3.61,3.61,0,0,0,1.23,2c1.51.59,1.74-.64,1.78-10.5.05-9.45.09-9.77,1.51-14.48a45.65,45.65,0,0,1,3.7-9.81c3.33-7.12,11.23-17.44,16.66-21.73,3.11-2.47,4.79-2.83,5.89-1.24,1.28,1.83.91,3.29-1.42,5.53-1.59,1.55-2.1,2.33-2.05,3.33.05,1.74,7.72,16.48,9.68,18.67a35.08,35.08,0,0,1,2.78,4.8q1.13,2.34,2.47,4.56a15.59,15.59,0,0,1,2,6,5.84,5.84,0,0,1-1.14,2.74c-.59.87-1.55,2.29-2.05,3.15s-1.55,2.52-2.28,3.66c-2.84,4.29-4.57,8.31-4.57,10.63,0,2.15,1,4.89,1.78,4.89.23,0,.5-.46.69-1.05a25.77,25.77,0,0,1,2.32-4.16,23.45,23.45,0,0,0,2.06-3.47,55.23,55.23,0,0,1,3.65-5.25c5-6.66,5.66-8,5.62-11.64a23.55,23.55,0,0,0-.73-5.48c-.37-1.37-.83-3.56-1-4.79s-.68-3.74-1.14-5.48a123.57,123.57,0,0,1-2.42-17.58c-.05-3.6,1.42-6.66,3.65-7.62,1.6-.64,4.71-3.42,4.71-4.2,0-.55-1.05-1.42-1.69-1.42-.32,0-2.7,2.06-5.21,4.52-4.7,4.61-6.3,5.57-7.58,4.52-.77-.64-.73-2,.32-15.43.41-5.34.41-5.75-.5-7.53-1.23-2.33-3.88-5.21-8-8.68a29.92,29.92,0,0,1-4.93-5.25c-1.42-2.19-1.64-2.87-1.64-5.25a26,26,0,0,1,.91-5.93,23.84,23.84,0,0,0,.91-5,20.87,20.87,0,0,1,.6-4.16c.73-2.87.59-3.38-1.05-3.38s-2.06-.64-2.24-2.74a7.8,7.8,0,0,0-.37-2C254.39,243.58,253.39,243.72,252.89,244.31Z" transform="translate(-43.65 -142.71)"/><path d="M412.64,315.07a6.14,6.14,0,0,0-.74,2.06,4.54,4.54,0,0,1-1,2,7.27,7.27,0,0,0-1.32,2.05,5,5,0,0,1-1.92,2.19c-1.83.92-4.61,4.62-5.21,6.81a12.74,12.74,0,0,1-1.09,2.78,9.36,9.36,0,0,0-1,3,12.81,12.81,0,0,1-.73,2.83c-.5,1-1.74,1.09-1.74.18s-.54-1.19-2.05-1.46c-1.23-.23-2,.77-2.56,3.47-.77,3.88-2.92,10.27-4,11.91a12.66,12.66,0,0,1-7,4.75c-2.24.41-4.3-.55-6.9-3.15-2.24-2.24-4.24-2.78-5.39-1.46-.68.87-2.55,5.94-3.65,9.86-.45,1.65-1.05,3.56-1.37,4.34a46.66,46.66,0,0,0-1.41,6.62c-.46,2.88-1.14,6.48-1.42,8s-.5,7.21-.55,12.69c0,9.95,0,10,1.05,10.87,2.88,2.33,6.81-.14,9.82-6.21,1.28-2.6,1.64-3.79,1.41-4.8-.27-1.27-.36-1.32-2.87-1.23-1.83.05-2.56-.09-2.51-.46.32-1.59,1.14-7.39,1.73-12.23,1-7.72,2.29-14.79,2.88-15.39.36-.36,1.09-.32,2.69.14a26.34,26.34,0,0,0,5.94.55c2.51-.05,3.88.09,4.11.45a9.16,9.16,0,0,1,.18,3.34,21.69,21.69,0,0,0,.41,4.75c.59,2.14,3.06,5,4.29,5,2.74,0,5.8-4,6.71-8.68.64-3.56.64-5.66,0-11.55s-.23-17.67.73-17.67c.45,0,.64.64.64,2.15,0,3,1,4.66,4.93,7.9s5,5.25,5.39,9.68c.41,5.38-1.47,11.18-6.67,20.22-.73,1.23-1.55,2.79-1.87,3.43-.5,1.09-.92,1.87-2,3.88-.5.86-4,6.3-5.7,8.9-.46.64-1.46,2.37-2.33,3.88l-1.55,2.69-.19,7.81c-.18,8.68.37,15.39,1.42,16.57a9.07,9.07,0,0,1,1.23,2.52,3.58,3.58,0,0,0,1.24,2c1.5.6,1.73-.64,1.78-10.5,0-9.22,0-9.86,1.23-13.33a33.71,33.71,0,0,0,1.23-4.2c0-.77,1.69-4.7,3.65-8.4A63.66,63.66,0,0,1,411,382.28c6.8-7,9.95-8.81,11.14-6.62.82,1.6.5,2.83-1.46,5.11-1.28,1.51-1.87,2.65-1.83,3.47s1.28,3.66,2.74,6.58A89.88,89.88,0,0,0,428,402c3.11,4.84,7.81,14.42,7.81,16a5.23,5.23,0,0,1-.82,2.55c-.41.69-1.19,1.78-1.65,2.51-6.07,9-7.53,12.15-7.53,15.71a5.75,5.75,0,0,0,1.32,4.29,9.79,9.79,0,0,0,7,4.25c2.33.23,2.52.18,4.34-1.46a5.94,5.94,0,0,0,1.87-2.51c0-1.47-2.14-3.52-3.92-3.79-2.24-.37-3.84-1.92-3.84-3.7,0-1.28,2.88-5.66,6.17-9.5a26.38,26.38,0,0,0,1.91-3.19c1.46-2.88,1.6-6.85.46-10.87-.37-1.37-.82-3.56-1-4.79a40.58,40.58,0,0,0-1.15-5.25,60.69,60.69,0,0,1-1.37-7.31c-1.41-12.28-1.37-11.78-.41-14.29,1.19-3,1.51-3.33,3.11-3.65,2-.41,4.61-2.88,4.61-4.48,0-1.32-.5-1.59-2.24-1.32-.87.09-4.15,2.83-4.15,3.42s-5.25,5.57-6.35,5.94c-1.46.46-2.28-.46-2.05-2.19.09-.82.36-5.48.64-10.37.41-8.53.41-8.94-.51-10.68a29.37,29.37,0,0,0-7.16-8,28.34,28.34,0,0,1-6.35-6.85c-1.23-2-1.42-6.66-.37-9.68a34.72,34.72,0,0,0,1.24-6.34c.77-6.85.77-6.62-.78-6.76s-2.05-.73-2.05-2.46C414.83,314.76,413.73,313.75,412.64,315.07Z" transform="translate(-43.65 -142.71)"/><path d="M642.65,327.4c-5.89,2.38-12.7,3.2-17.81,2.19a8.39,8.39,0,0,0-2.24-.22,44.94,44.94,0,0,0,2,5.56,186.87,186.87,0,0,1,9.77,34.16,257.63,257.63,0,0,1,3.7,38.48v4.25l-7.3-.14-7.31-.14v21.55l4.48.28c2.42.18,5.7.32,7.25.32h2.88l.09,79.3.14,79.3,12.24,8.82c6.71,4.84,12.32,8.81,12.41,8.81s.23-17.35.23-38.54c0-42.27,0-42.18,2.79-50.58,7.58-22.83,28.53-44.56,45.15-46.94q13.9-2,21.46,13.38c3.92,8,5.48,15.89,5.48,27.94,0,14.66-2.7,28.17-8,39.63-1.73,3.88-8.08,14.25-16.39,26.94-3.28,5.07-5.75,9.22-5.52,9.4.55.5,13.19,10.18,17.53,13.43l3.42,2.55,1.1-1c1.69-1.55,11.46-14.75,14.15-19,15.39-24.84,18.72-54,9.36-82.13-5-14.84-11.91-26.94-19.86-34.52-8.44-8.08-17-11.92-27.8-12.42-8.54-.41-14.75,1.23-21.51,5.85-4.15,2.78-11.82,10.68-16.75,17.21l-4.2,5.61V434.14H669c13.33,0,87,2.65,96.1,3.43l3.06.27V427.52c0-7.85-.14-10.36-.55-10.5-.64-.18-17.48-1.14-39.4-2.28-7-.36-21.73-1-32.64-1.37s-22.56-.82-25.84-1l-6-.27-.32-7.31a248.52,248.52,0,0,0-8.77-54.92c-3.1-11.46-7.35-24-8.17-23.92C646.3,326,644.52,326.67,642.65,327.4Z" transform="translate(-43.65 -142.71)"/><path d="M848.32,432.68c-2.37,1.46-10.91,10.28-17.16,17.76l-6,7.22,1.78.27c1,.18,6.71.41,12.74.59s12.05.42,13.38.55l2.37.28v-5.94c0-3.79-.23-6.53-.64-7.67s-1-3.74-1.41-6.12c-1.28-7.12-1.51-7.76-2.65-7.76A6,6,0,0,0,848.32,432.68Z" transform="translate(-43.65 -142.71)"/><path d="M1004.83,439.21c.32,2.38,5.16,13.61,6.35,14.89a28.56,28.56,0,0,0,5.43,3.37c6.16,3.15,8.58,5.8,12.42,13.52,1.64,3.29,3.33,6.07,3.74,6.25a10.9,10.9,0,0,0,2.6.28h1.88l-.28-2.06a16.88,16.88,0,0,0-1.14-3.79c-.5-.91-2-5-3.29-9-3.1-9.41-4.52-12.1-7.85-14.88-4.43-3.7-14.79-9.27-18.22-9.82l-1.91-.32Z" transform="translate(-43.65 -142.71)"/><path d="M871.38,457.38v18.31l-3.06-.23c-5.48-.41-64.42-2.51-92.45-3.24l-11.78-.32v15.2h18.26v30.78L780.53,520l-1.83,2.19v9.27l5.16-2.83c14.24-7.76,20.59-9.91,30.91-10.36,9-.41,12.32,1,16.84,7l2.33,3.06v9.91l-2.78-1.83c-5.66-3.65-10.59-4.79-19-4.43-12,.51-21,4.61-29.77,13.84-8,8.35-11.69,15.7-12.19,24.15a27,27,0,0,0,6.17,19.31c7.12,8.86,16.8,12.33,29.22,10.41A47.06,47.06,0,0,0,828.37,590a28.77,28.77,0,0,1,4.2-2.88c.51,0,.92,1.19.92,2.69,0,1.14.41,1.42,6.07,3.84,3.29,1.41,6.57,2.74,7.3,3l1.24.5V568.92c0-28-.32-36.71-1.65-44.61-1.73-10.73-5.61-16.48-13.51-20.08-3.84-1.74-8.13-2.52-14.52-2.52-5.94,0-10.46.78-19,3.34a16,16,0,0,1-4,.86c-.13-.13-.22-4.33-.22-9.35v-9.14l12.23.28c6.71.18,23.19.55,36.62.77s25.11.6,25.93.73l1.46.23v41.23c0,39.77,0,41.36.91,44.19,1.92,6.26,6.76,12.29,11.87,14.71,2.74,1.32,3.34,1.41,7.54,1.36a28.9,28.9,0,0,0,14.83-4.15c6-3.56,12.88-11.69,16.67-19.91,2.56-5.57,2.65-5.25-1.64-7.62-2.06-1.14-6-3.42-8.82-5.11l-5.06-3-.51,6.9c-.54,7.26-1.14,10.86-2.32,14.7-2.1,6.71-6.08,10.73-10.64,10.73-2.19,0-3.65-1.28-5.21-4.57-1-2-1-2.37-1.09-45.56l-.09-43.47h3.74c6.16,0,53.87,1.42,55.47,1.65l1.51.23.09,37.07.14,37.12,1.73,3.51a22.88,22.88,0,0,0,9,9.73c2.1,1.05,3.2,1.27,6.94,1.46a21.21,21.21,0,0,0,8.63-1,42.59,42.59,0,0,0,7.22-2.83c6.57-3.47,13-10.23,17.3-18.35,1.92-3.61,2.33-5.12,1.46-5.12-.23,0-4.06-1.73-8.54-3.88s-8.08-3.83-8.12-3.79-.37,2.88-.64,6.17c-1.14,13.15-4.29,19.63-10.59,21.73-3.38,1.14-5.67.05-7.31-3.56-.82-1.74-.87-3.88-.87-39.86v-38h1.74c.91,0,12,.41,24.74.91,35.71,1.41,45.7,1.83,48.31,2l2.37.23v-5c0-4.79,0-5-1-5-.55,0-8.22-.5-17-1.14s-24.24-1.65-34.28-2.29-19.77-1.23-21.55-1.41l-3.34-.28v-19.4l-1.91-1.55c-1.1-.82-4.8-4-8.22-6.94l-6.3-5.34v16.21c0,8.9-.09,16.2-.18,16.2L927,478.25l-27.76-1.42c-3.65-.18-7.72-.36-9-.5l-2.42-.23V453.87l-6.26-5.66c-3.47-3.11-7.17-6.44-8.22-7.4l-2-1.74ZM820.7,550c7.54,2.19,12.33,5.25,13,8.31.51,2.38-1.14,5.16-6,10.05-8.9,8.81-17.26,13.78-27.81,16.52a36.19,36.19,0,0,1-10,1.1c-5.35,0-6.17-.09-8.13-1.1-4.66-2.28-6-6.25-3.79-11.55,3.51-8.58,11.32-17.3,18.95-21.14A31.06,31.06,0,0,1,820.7,550Z" transform="translate(-43.65 -142.71)"/><path d="M159.16,443.78C118.25,450.12,63.83,459.57,46,463.41l-2.33.5v4.89a29.13,29.13,0,0,0,.23,5.11c.13.09,5.79-.64,12.64-1.64L69,470.39l.13,11.42c0,6.3,0,11.69-.09,12A12.47,12.47,0,0,1,66.29,496l-2.55,1.69v3.65c0,3,.13,3.61.64,3.42s1.55-.5,2.64-.77,5.71-1.74,10.32-3.24c15.21-4.94,26.12-7.08,38.76-7.58,10.82-.41,14.93.77,20.69,6.11l3.19,3V512l-4-2C125.6,505,109.67,504,92.68,507.42c-16.75,3.38-35.15,13.51-39.49,21.69a10.37,10.37,0,0,0-1.1,5.25c0,4.11,1.51,7.35,5.39,11.5,10.37,11,28,18.45,48.49,20.27a61.75,61.75,0,0,0,27.16-3.28c2.92-1,5.39-1.6,5.62-1.37a5.77,5.77,0,0,1,.64,2.28,4.58,4.58,0,0,0,.82,2.33c.32.27,3.51,2,7.12,4s8,4.38,9.68,5.34l3.11,1.73-.19-33.51c-.18-35.61-.36-38.58-2.6-47.66-2-7.86-5.71-12.88-11.87-15.89-4.34-2.15-7.67-3-13.83-3.52-9.36-.82-18.49.32-34.79,4.34-5.48,1.32-10.18,2.33-10.37,2.24s-.54-15.25-.23-15.25c.05,0,7-.91,15.39-2.06,18.9-2.55,65.88-8.44,67.34-8.44a59,59,0,0,0,.23-7.53c0-6.9-.09-7.54-.78-7.49C168,442.41,163.81,443.05,159.16,443.78Zm-40.64,78.16a83.63,83.63,0,0,1,15.12,5.16c4.15,2,6.71,5.11,6.16,7.26-.41,1.6-3.88,4.84-7.44,6.94A73.64,73.64,0,0,1,89.21,551c-13.51-1-21.82-3.38-26.11-7.3-3.15-2.92-2.79-4.89,1.73-9,8.36-7.63,19.63-12.24,34.06-14,.87-.09,4.57-.14,8.22-.05a49.52,49.52,0,0,1,11.41,1.28Z" transform="translate(-43.65 -142.71)"/><path d="M503.85,470.26c-105.69,1.28-226.13,5.48-322,11.14-6.26.36-12.15.68-13.15.68h-1.78v11h3.33c1.78,0,11.92-.32,22.46-.69,62.6-2.19,189-5.25,217.69-5.25h8.54v18.63l-4,.28c-13.92,1-24.74,3.83-31.91,8.26a21.62,21.62,0,0,0-8.58,9.36c-1.28,2.69-1.42,3.38-1.42,7.53s.09,4.75,1.37,7c1,1.83,2.42,3.34,5.39,5.66,2.19,1.78,3.83,3.34,3.65,3.52s-2,1.41-4,2.74c-7.26,4.84-11.09,10.09-12.14,16.71-1.1,6.89.87,12,6.85,18,8.63,8.59,20.63,14.7,33.6,17.12,6.25,1.19,18,1.19,23.51,0a53.67,53.67,0,0,0,19.77-8.9l2.15-1.6V575.81c0-8.63-.09-15.66-.19-15.66a36.24,36.24,0,0,0-2.73,4.29c-8.77,14.89-19.82,24.16-32.47,27.26-5.47,1.37-14.24,1.46-18.21.23-6.3-1.87-11.28-5.48-13.38-9.59-1-1.92-1.23-2.92-1.23-5.75,0-4.34,1.41-7.4,4.56-9.77,4.61-3.52,10.37-4.8,23.15-5.16l9.5-.27-.14-6-.14-5.93-2.74-.5a10.83,10.83,0,0,0-5.75.27c-5.11,1.28-14.33,0-19.22-2.65-3-1.64-4.25-3.69-4.15-7,.13-6.62,5.25-11.6,15.2-14.89,3.65-1.18,4.38-1.27,11.64-1.27,9.59,0,12.46.59,22.05,4.61.46.18.55-1.37.46-7.44l-.14-7.72-2.83-1.37-2.83-1.37V498.47l0-11.73,25.24-.27c13.84-.14,31.92-.32,40.18-.42l14.93-.13v19.77l-4.66.32c-13,.86-24.38,4-31.5,8.76a21,21,0,0,0-8,9.22,16.13,16.13,0,0,0-1.82,7.31c-.41,7.21,1.28,10.45,8.08,15.61l3.19,2.42-3.33,2.19c-7.71,5.16-12.37,11.42-13.51,18.27-1.78,10.45,2.78,18.44,15.29,26.89,9.91,6.66,19.91,9.86,32.46,10.36,10.09.41,17.67-1,25.66-4.66,3.52-1.64,10.37-6,11.69-7.48.64-.73.73-2.61.64-17l-.14-16.16-1.32,2.51c-10.59,20.18-25.3,31.5-42.46,32.69a25.93,25.93,0,0,1-14.43-2.6c-6.76-3.38-9.77-7.58-9.77-13.65,0-11.6,10.23-16.76,33.65-16.89h3.51V551.2l-2.78-.45a10.77,10.77,0,0,0-5.84.36c-5,1.46-14.2.32-19-2.28-3.24-1.78-4.33-3.61-4.33-7.35,0-5.84,3.56-10.64,10.18-13.88,11.09-5.39,24.74-5.11,37.89.73l1.69.78v-7.72c0-8.72.14-8.4-4.06-10.27l-1.88-.87V485.73h24.66v-16l-11,.09C536.45,469.89,519.06,470.07,503.85,470.26Z" transform="translate(-43.65 -142.71)"/><path d="M314.66,502.44c-6.39,1.37-11.37,4.34-19.13,11.33a66.7,66.7,0,0,1-5.07,4.38,36.8,36.8,0,0,1-.27-6.16v-6.17h-2.61c-1.46,0-5,.14-7.76.32l-5.16.28v78.2l7.45,5.35,7.39,5.38.23-20.22c.27-18.77.37-20.59,1.32-25,3.75-17.44,12.7-32.1,22.65-37,10.82-5.39,22.55-2.14,27.12,7.49,2.33,4.93,3,9.13,3,18.12-.05,11.6-2,20.6-5.89,27.63-1.78,3.24-7.67,11.14-12.42,16.75l-3.38,4,1.51,1.32c13.28,11.69,16.16,14.11,16.43,13.93.78-.5,6.76-10,8.72-13.79a77.1,77.1,0,0,0,8.18-41.32c-1.33-15.75-6.31-27.62-15.44-36.7C334.06,503.17,324.66,500.34,314.66,502.44Z" transform="translate(-43.65 -142.71)"/><path d="M223,503.08c-6.3,1.6-15.93,8.77-26.93,20l-4.93,5V506.28H177V623.52l7,5.53,6.94,5.52.23-38.12.22-38.17,5.53,5.84c9,9.59,16.57,15.76,22.78,18.72,4.66,2.2,9.13,2.56,14.7,1.15,12.88-3.25,23.51-13.93,27.12-27.26a45.57,45.57,0,0,0,0-19.86c-2.28-8.58-7.76-17.81-14.61-24.66-4.66-4.56-7.76-6.71-12.19-8.26C231.61,502.86,225.63,502.44,223,503.08Zm20.27,15.07c2.74,1.42,5.85,4.84,7.95,8.77,1.55,3,1.73,3.79,1.92,7.3.31,6.16-1.6,11.64-6.21,17.81-3.25,4.29-4.93,6.11-8,8.44A29.87,29.87,0,0,1,219.83,567,25.34,25.34,0,0,1,207,564c-8.17-4.11-11.55-7.72-11.46-12.28.14-5,3.25-10.18,10.23-16.9,8.81-8.49,19.72-15.56,26.71-17.34C236,516.6,240.65,516.87,243.25,518.15Z" transform="translate(-43.65 -142.71)"/><path d="M1017.11,535.59l.14,32.1,6.85,2.37c3.79,1.28,7.12,2.37,7.44,2.37s.55-7.07.55-34.15V504.13l-3.52-.32c-1.92-.13-5.29-.27-7.53-.27h-4Z" transform="translate(-43.65 -142.71)"/><path d="M371.86,613.16c-.73.73-.86,1.28-.63,2.88.32,1.87.27,1.91-1.24,2.41-8.53,2.84-18.35,7.9-18.76,9.64a5,5,0,0,0,.55,2.28c.59,1.32.59,1.78,0,4.11l-.64,2.6-3.2,1.51c-1.73.82-3.92,2-4.79,2.56s-3.34,2.19-5.48,3.6-5,3.38-6.39,4.39-2.83,2-3.2,2.19a11.05,11.05,0,0,0-1.14.68l-1.83,1.46a19.18,19.18,0,0,1-3,1.83,32.3,32.3,0,0,0-4.34,2.78c-1.51,1.1-3.2,2.29-3.74,2.61s-2.2,1.5-3.66,2.64c-2.14,1.69-9,6.4-14.47,10-16.39,10.82-18,12-18.54,13.56-.68,2-.45,2.28,1.33,1.37,1.6-.82,1.82-.59,1.55,1.37s-5,5.94-10,8.4a7.44,7.44,0,0,0-2.29,1.51c-.41.64-2,1.55-6.3,3.74-3.24,1.6-7.17,4.2-8.49,5.66a8.08,8.08,0,0,1-2.19,1.42,2.63,2.63,0,0,0-1.69,1.64c-.23.87-.68,1.19-2.1,1.37-2,.32-2.6,1.19-1.73,2.24.45.5.41.82-.19,1.37a3.47,3.47,0,0,0-.73,2.1c0,1.09.18,1.32.82,1.19.41-.14,1.56-.37,2.51-.55s1.69-.5,1.69-.82.46-.6,1-.64a2,2,0,0,0,1.23-.5,3.24,3.24,0,0,1,1.64-.74c1.69-.41,3.43-1.78,3.43-2.73,0-.55.46-.74,1.83-.74s1.82-.18,1.82-.68.46-.68,1.37-.68,1.92-.55,3.52-2.1a14.36,14.36,0,0,1,5.75-3.57,1.12,1.12,0,0,0,.78-.95c0-.42.41-.69,1-.69,1,0,4-1.78,4-2.37a.83.83,0,0,0-.46-.6c-1-.64-.32-1.91,2-3.7a15.3,15.3,0,0,1,3.47-2.23,6.88,6.88,0,0,0,2.29-1.42,3.91,3.91,0,0,1,2-1.09,2,2,0,0,0,1.37-.83,17.78,17.78,0,0,1,3.24-2.55c1.46-1,2.6-2,2.6-2.28a3.26,3.26,0,0,1,1.14-1.56,3.19,3.19,0,0,0,1.15-1.69c0-.82,2.05-2.23,2.69-1.82a4,4,0,0,0,2.19-.64,48.58,48.58,0,0,1,7.35-3.24,1.86,1.86,0,0,0,1-.73,7.42,7.42,0,0,1,2-1.33c.78-.36,3.38-1.92,5.76-3.42s4.79-2.92,5.38-3.2a7,7,0,0,0,1.6-.91c2.38-2,4.2-2.83,5.85-2.56,1.23.19,1.73.09,2-.41a.78.78,0,0,0-.18-.91c-.87-.55-.46-1.14,1.23-2,1.19-.55,1.69-.64,1.83-.23s.5.41.86.27a1.46,1.46,0,0,1,1.33.32c.55.46.87.46,1.5-.14a7.24,7.24,0,0,1,2.83-1c1.92-.32,2.52-.69,5.26-3.24a8,8,0,0,1,1.82-1.28c.59-.23.73-.64.55-1.78-.18-1.33-.14-1.46,1-1.46a2.14,2.14,0,0,1,1.51.41.46.46,0,0,0,.62.18l.07,0c.18-.23,0-.55-.32-.83-.6-.36-.6-.45,0-.86,1.05-.69,3.92-.55,4.56.22.41.51.73.6,1.1.23a2,2,0,0,1,1.23-.45c.87,0,3.61-3.06,3.61-4,0-.46.27-.55.82-.28,2.1.92,4.56-.54,5.89-3.47,1.78-4,2.87-6.84,2.87-7.39,0-.87,2.29-3.2,2.93-3s1.05,1.74,1.55,6.26c.41,3.88.41,3.92,2.83,6.52a11.6,11.6,0,0,0,3,2.61,3.41,3.41,0,0,1,1.59,1.14c1.05,1.14,3.66,1.6,3.66.68s.68-.41,1.28.92c.77,1.69,1.91,1.82,1.91.22,0-.68.28-1.14.69-1.14s.77-.64,1-1.59c.32-1.79.82-2,1.55-.74s.55,2.38-.32,3c-1.14.87-.41,2.24,1,1.87.92-.23,1.24,0,1.83,1.14l.78,1.42,1.09-1.05c.64-.6,1-1.33.91-1.65s.1-.59.55-.59c1.05,0,1.69.46,2.33,1.69a1.78,1.78,0,0,0,1.23,1c.55,0,.64.32.41,1.32a1.9,1.9,0,0,0,.32,1.83c3,2.56,4,3,4,1.64,0-.82.32-.86,1.14-.13.37.32,1.42,1.18,2.38,1.87s3.51,2.6,5.7,4.2a45.23,45.23,0,0,0,4.3,3,15.12,15.12,0,0,1,2.32,1.82,10.54,10.54,0,0,0,2.52,1.83,3.21,3.21,0,0,1,1.36,1.14,3,3,0,0,0,1.6,1.14,1.74,1.74,0,0,1,1.24.64,71.44,71.44,0,0,0,6.07,4.29c5.2,3.47,7,4.16,7,2.69,0-.54-3-3.46-6.39-6.16-1.14-.91-2.46-2.1-3-2.6a29.14,29.14,0,0,0-2.37-2.06c-1-.77-1.37-1.32-1.1-1.78s.6-.45,1.33-.09a2.28,2.28,0,0,0,1.55.28c.55-.23,1.28.27,4.57,3.24a5.14,5.14,0,0,0,1.68,1.09,27.69,27.69,0,0,1,4.11,3.66,41.86,41.86,0,0,0,4.93,4.33,18.3,18.3,0,0,1,4.2,2.93c2.33,2.1,4.34,3.24,5.44,3,2.42-.64.27-3.15-4.61-5.43a18.79,18.79,0,0,1-4.66-3,26,26,0,0,0-4.11-3.28,81.57,81.57,0,0,1-8.22-7.22,68.27,68.27,0,0,0-16-12,30.42,30.42,0,0,1-5.89-4.43,10.34,10.34,0,0,0-2.56-2.24,32,32,0,0,1-4.47-4c-5.07-4.94-7.9-7.36-10.55-9-3.7-2.28-4.34-3.74-2.78-6.66.86-1.6.68-2.88-.6-3.7-1-.64-8.31-7.12-11.09-9.77-2.47-2.38-2.88-3-2.88-4.39,0-2.14-1.41-3.1-4.56-3.1C373.42,612.2,372.6,612.43,371.86,613.16Z" transform="translate(-43.65 -142.71)"/><path d="M707.61,613a2.37,2.37,0,0,0-1.05,2.32c0,1.37-.41,2-2.87,4.39-2.79,2.65-10.14,9.13-11.1,9.77-1.27.82-1.46,2.1-.59,3.83,1.51,2.92,1,4.25-2.78,6.58-2.65,1.6-5.44,4-10.6,9a34.1,34.1,0,0,1-4.52,4,12.11,12.11,0,0,0-2.46,2.24,32.94,32.94,0,0,1-5.89,4.43,68.32,68.32,0,0,0-16,12,81.71,81.71,0,0,1-8.21,7.22,29,29,0,0,0-4.11,3.28,17.89,17.89,0,0,1-4.66,3c-4.89,2.28-7,4.75-4.57,5.43.69.19,1.69-.22,3.43-1.41a16.12,16.12,0,0,0,2.74-2.19,11.22,11.22,0,0,1,2.55-1.83,39.9,39.9,0,0,0,5.89-4.88,24.94,24.94,0,0,1,4.11-3.57,12.37,12.37,0,0,0,3-2.28,9.33,9.33,0,0,1,3.2-2.19,4.86,4.86,0,0,0,1.73-.27c1.92-.6,1.55.91-.55,2.51a9.89,9.89,0,0,0-2,1.78,8.47,8.47,0,0,1-1.91,1.73c-2.79,2-7.22,6.21-7.22,6.81,0,1.5,1.78.82,7-2.7a64.81,64.81,0,0,0,6.07-4.34,1.87,1.87,0,0,1,1.23-.59,2.88,2.88,0,0,0,1.6-1.14c.5-.64,1.1-1.14,1.37-1.14a9.62,9.62,0,0,0,2.51-1.83,15.71,15.71,0,0,1,2.33-1.82,38.34,38.34,0,0,0,4.29-3c2.19-1.65,4.75-3.52,5.71-4.2s2-1.55,2.37-1.87c.82-.73,1.14-.69,1.14.13,0,1.33,1,.92,4-1.64a1.88,1.88,0,0,0,.32-1.83c-.23-1-.14-1.32.41-1.32a1.77,1.77,0,0,0,1.24-1c.63-1.23,1.27-1.69,2.32-1.69.46,0,.69.23.55.59s.28,1,.91,1.65l1.1,1.05.78-1.42c.59-1.19.91-1.37,1.82-1.14,1.42.37,2.15-1,1-1.87a2.27,2.27,0,0,1-.09-3.29c.91-.91,1.14-.64,1.32,1,.09.78.46,1.37.91,1.46s.73.6.73,1.28c0,1.55,1.19,1.37,1.92-.27.59-1.33,1.28-1.83,1.28-.92s2.6.46,3.65-.68a3.74,3.74,0,0,1,1.6-1.14,12.75,12.75,0,0,0,3-2.61c2.42-2.6,2.42-2.64,2.83-6.52.5-4.52.87-6,1.55-6.26s2.92,2.1,2.92,3c0,.55,1.1,3.42,2.88,7.4,1.32,2.92,3.79,4.38,5.93,3.46.51-.27.78-.18.78.28,0,1,2.74,4,3.61,4a2,2,0,0,1,1.23.45c.36.37.68.28,1.09-.23.64-.77,3.52-.91,4.57-.22.59.41.59.5,0,.86-.36.28-.5.6-.32.83a.46.46,0,0,0,.64-.08l0-.06a2.13,2.13,0,0,1,1.5-.41c1.14,0,1.19.13,1,1.46-.19,1.14,0,1.55.54,1.78a8,8,0,0,1,1.83,1.28c2.69,2.51,3.33,2.87,5,3.19a10.07,10.07,0,0,1,2.88,1c.82.55,1.23.59,1.73.18a1.37,1.37,0,0,1,1.28-.32c.37.14.78,0,.87-.27s.64-.32,1.83.23c1.69.82,2.1,1.41,1.23,2a.76.76,0,0,0-.18.91c.22.5.73.6,2,.41,1.46-.23,2.05,0,4.06,1.37,1.32.92,2.83,1.87,3.38,2.15s3,1.64,5.34,3.15,5,3.06,5.75,3.42a7.32,7.32,0,0,1,2,1.33,1.84,1.84,0,0,0,1,.73,47.71,47.71,0,0,1,7.35,3.24,4,4,0,0,0,2.2.64c.64-.41,2.69,1,2.69,1.82a3.16,3.16,0,0,0,1.14,1.69,3.19,3.19,0,0,1,1.14,1.56c0,.32,1.33,1.41,2.92,2.46a13.6,13.6,0,0,1,3.2,2.6.75.75,0,0,0,.91.46c.32-.14,1.28.37,2.06,1.1a5.36,5.36,0,0,0,2,1.32c.68,0,2.51,1.19,4.84,3.15,1.59,1.37,1.73,1.64,1.32,2.6s-.32,1.19.59,2a4.8,4.8,0,0,0,2.29.95,1.34,1.34,0,0,1,1.46.87c.18.55.91,1.1,2.1,1.46a9.9,9.9,0,0,1,3.6,2.33c2.1,2.24,3.75,3.15,5.07,2.79.82-.23,1-.1.87.59s.18.87,2.15.91a14.29,14.29,0,0,0,3.74-.45c1.14-.37,1.64-.32,2,.13s.46.55.05.32a4.37,4.37,0,0,0-2.47.64c-1.78,1-1.82,1-1.09,1.83a5,5,0,0,0,2.33,1.18c.86.14,1.55.51,1.55.74s.59.36,1.32.27c1-.14,1.24,0,1,.64-.09.46.05.82.32.82s.41-.23.23-.5.18-.18.78.18a10,10,0,0,0,2.37,1c1.1.27,1.23.14,1.23-.78a4.35,4.35,0,0,0-.91-2.28c-.87-1.1-.87-1.23-.18-1.6,1.09-.59.45-1.37-1.69-1.91a3.31,3.31,0,0,1-2.33-1.6,3.56,3.56,0,0,0-1.78-1.6,5.51,5.51,0,0,1-1.83-1.19c-.91-1.09-5.52-4.06-10.31-6.62-2.61-1.37-4.71-2.69-4.71-2.92a7.29,7.29,0,0,0-2.64-1.83,50.13,50.13,0,0,1-5.85-4c-2.6-2.1-3.33-3-3.51-4.11-.28-2.05-.05-2.28,1.55-1.46s1.92.69,1.46-1.23c-.37-1.32-1.42-2.19-7.72-6.48-4-2.7-8.31-5.62-9.58-6.4-4.07-2.55-8.13-5.25-9.82-6.48a28,28,0,0,0-2.56-1.73c-.54-.32-2.1-1.46-3.56-2.61s-3-2.28-3.38-2.51-2.05-1.37-3.6-2.51-3.79-2.55-4.89-3.19a37.61,37.61,0,0,1-4.79-3.2,2.42,2.42,0,0,0-.92-.59,25.49,25.49,0,0,1-2.51-1.74c-1.55-1.18-5.34-3.7-12.55-8.44a50.1,50.1,0,0,0-4.8-2.56l-3.19-1.51-.64-2.6c-.64-2.37-.59-2.78.09-4.25a4,4,0,0,0,.5-2.23c-.32-.87-2.87-2.51-7.53-4.84a78.87,78.87,0,0,0-11.14-4.66c-1.69-.64-2.1-1.23-1.55-2.24a2.36,2.36,0,0,0-.5-3.15C713.18,612,709.17,611.88,707.61,613Z" transform="translate(-43.65 -142.71)"/><path d="M363.37,654.52c-1.18.82-2.51,4.89-2.33,7.22s.1,2.32-.86,1.82a1.56,1.56,0,0,1-1.05-1.18,2,2,0,0,0-.55-1.24c-.64-.5-3-.23-3.38.41a1.41,1.41,0,0,1-1.1.41c-1.09,0-3.15,2.52-3.51,4.2-.27,1.33-.32,1.37-2.6,1.19s-2.56,0-4.84,1.83c-1.37,1.05-3.43,2.6-4.48,3.42s-2.74,2.15-3.65,2.92-2.1,1.78-2.6,2.15c-1.33,1-.78,1.19,3,1.23,4,.09,4.75.37,2.65,1.05-1.37.46-1.55.73-1.55,2s-.23,1.55-1,1.74c-.59.18-1,.54-1,.91s-1,.64-4.47.64c-2.65,0-4.7-.23-5-.5s-.77-.37-1.41,0-1.74.32-3.56,0c-1.51-.27-7.08-.45-12.47-.5-9,0-9.81.05-10.64.87s-.91,1.78-1.14,8.44c-.23,6.9-.5,8.4-1.23,7.26-.36-.59-3.06,0-4.34.92-.59.41-.91,1-.73,1.23.41.73,1.37.64,2.06-.18.36-.46,1.18-.64,2.33-.6,1.5.14,1.78.32,1.78,1.14s-.28,1-1,1a3,3,0,0,0-1.82.78,16.24,16.24,0,0,1-3.79,2.33c-1.33.59-4.34.14-4.34-.69s-2.19-.41-4.43.87c-1.42.87-1.51,1-.82,1.74,1,1.09.87,1.37-.78,1.37a4,4,0,0,0-2.28.77c-.78.69-.87.69-1.42-.09s-.77-.73-1.73-.23c-1.42.78-2.69,2.24-2.69,3.06a4.23,4.23,0,0,1-.92,1.83c-1.28,1.6-1.14,2,.37,1.23a7,7,0,0,1,2.37-.64,3.55,3.55,0,0,0,2.19-1.14,6.38,6.38,0,0,1,2.74-1.42,6.31,6.31,0,0,0,2.51-1c.69-.64.78-.59.78.09,0,1-2.05,3-4.25,4.11a24.37,24.37,0,0,0-4.33,3.38,41.32,41.32,0,0,1-4.2,3.51c-3.38,2.15-3.52,3.52-.41,4.34,2,.55,3.83.59,15.7.37,4.52-.09,7.31-.32,7.26-.6s-.18-1-.37-1.73c-.27-1.14-.18-1.23,1.1-1.23h1.37l.09,5.11c.09,7.21.23,8.63.78,9.18.73.73.59,1.64-.41,2.92l-.92,1.18v-1.46c0-.77-.18-1.41-.36-1.41-.64,0-2.15,2-2.19,2.83-.14,3-.19,3.1-1.87,3.88a15,15,0,0,1-2.06.78c-.5,0-2.65-4.2-2.65-5.25a.82.82,0,0,1,.69-.87c.45,0,.68-.46.68-1.37,0-1.23-.13-1.37-1.37-1.37-1.09,0-1.37.18-1.37,1s-.18.91-1.41.64-1.42-.19-1.65.64c-.36,1.32-2.32,1.27-2.87-.1l-.41-1-.32,1c-.37,1.28-.92,1.33-1.24.14a1.33,1.33,0,0,0-2.42-.23,1.6,1.6,0,0,1-1.36.69c-1.15,0-1.51-.69-.51-1.05.28-.14,0-.46-.77-.73-1.83-.73-2.65-.37-2.29,1.09.28,1.1.23,1.14-2.05,1.14a8.55,8.55,0,0,0-3.15.46,17.84,17.84,0,0,1-4.2.87c-2.38.32.46.36,9.4.18,10.6-.18,12.92-.14,13.24.37.51.77,1.24,18.85,1.1,26.66,0,1.78.18,2.46.87,3,2,1.65,2.33,8.4.91,18.68-.27,2.14-.59,8-.68,13-.23,15.06-1.79,44.51-2.56,49.12a13.75,13.75,0,0,0-.18,4.25l.27,1.19h20.55v-6.08c0-3.28.13-6.8.27-7.71.27-1.51.41-1.65,1.14-1.24a1.44,1.44,0,0,1,.87,1.1c0,.87,1.55.87,2.28,0a2,2,0,0,0,.32-1.6c-.23-.82.73-1.82,1.74-1.82.18,0,.22,3.88.09,8.67l-.23,8.68h50.58v-2.2a5.79,5.79,0,0,1,.42-2.6c.22-.23.54-14.15.68-33.33.18-18.08.55-38.48.82-45.29l.55-12.42H384c13.61,0,25.48,0,26.48,0,1.6,0,1.74-.09,1.56-1.14-.14-.64-.14-1.14-.05-1.14a2.77,2.77,0,0,1,.59,1.14,1.49,1.49,0,0,0,1.46,1.14c1.05,0,1.05,0,.83,4-.14,2.24-.23,6.9-.19,10.41s.1,23.28.14,43.92l.05,37.58h4.79L419.57,820c0-22.28-.13-40.72-.18-40.95s-.09-3.61,0-7.44l0-6.94h3.38c3.2,0,3.38,0,3.65,1.14.23.91.6,1.14,1.65,1.14.73,0,1.46-.23,1.59-.5a1,1,0,0,1,1.1-.23c.64.23.59.18-.05-.36s-.82-1.28-.82-3.11c0-3-1-4.24-2.92-3.74-1.32.32-1.46.64-.64,1.46.64.64.82.64-4.52.55a19.25,19.25,0,0,0-5.11.41,2,2,0,0,1-2.15-.19c-1-.5-4.79-.63-20.91-.63-24.29,0-48.76-.51-49.35-1-.23-.19-6.48-.46-13.88-.64s-13.51-.37-13.65-.5,0-.78.32-1.42c.45-1.05.73-1.14,2-.87,3.15.69,69.8,2.33,71.27,1.78s.54-1-3.25-1.28c-2.23-.13-8.21-.45-13.37-.68-14.57-.64-27-1.32-33.79-1.87-3.38-.28-11-.64-16.89-.87-8.49-.27-11-.23-11.92.23-2.05,1.05-2.05,2.19.05,5.52.78,1.19.32,1.88-.69,1-.41-.32-.82-.45-1-.32a61.19,61.19,0,0,0-.64,7.67c-.23,4.07-.46,7.45-.59,7.58a71.9,71.9,0,0,1-.14-8.49c.05-4.79,0-8.86-.23-9a6,6,0,0,1-.36-2.74v-2.47h-2.06c-1.73,0-2.05.14-2.05.87a1.67,1.67,0,0,1-.5,1.23c-.32.18-.42,1-.23,2.19.68,4.57.64,5.3-.14,5.71s-.73,0-.87-2.15a8.39,8.39,0,0,0-.64-3.19c-.27-.32-.36-.73-.09-.91.73-.55,1.42-3.06,1.37-4.94,0-1.73-.09-1.78-1.64-1.78s-1.6.1-1.55,1.47c0,.82-.1,1.5-.37,1.5s-.32.55-.14,1.33c.23,1.14.14,1.32-1.09,1.55a4.48,4.48,0,0,1-2.06,0,.84.84,0,0,0-1,.23c-.41.69-2.83.64-3.1-.09-.37-1-1.87.32-2.15,1.78-.22,1.14-.45,1.33-1.64,1.23s-1.41,0-1.23,1.15l.18,1.23-.59-1.14c-.41-.78-.55-2.42-.46-5.16l.14-4h2.42c3,0,4.38-1.28,4.38-4.16,0-1.78,0-1.87,1.14-1.6.91.23,1.14.14,1.14-.64a.83.83,0,0,1,.69-.91.66.66,0,0,1,.68.64h0a1.14,1.14,0,0,0,.69.91c.59.23.68-1.55.68-14.24,0-10.41-.13-14.66-.55-15.07s-.36-.68,0-1.14.6-4.88.64-14.29l.14-13.65,4.34.05c5.2,0,20.36.45,33.69.91,9.68.32,9.73.32,10-.69.32-1.23.78-1.23,1.6.05.68,1,1,1,12.51,1.41,6.53.19,13.88.28,16.43.14s4.8,0,5,.18c.63.64,15.34.69,16.57,0,.87-.46,1.19-.46,1.82.14s2.42.73,12,.73c6.16,0,11.36.18,11.59.41s5.94.5,12.65.59,12.33.32,12.55.5.6,3.43.87,7.08.6,6.39.73,6,.46-3.47.73-6.85c.55-7.53.46-7.72-3.74-7.81-1.83,0-2.42-.14-1.69-.36,4.43-1.24-2.47-1.92-21-2.1-6.16-.05-11.68-.23-12.32-.37s-6.67-.36-13.47-.55c-13.56-.27-18-.59-18-1.23,0-1.1,1.32-1.73,2.51-1.28,1.73.64,1.87.6,2.51-1,.32-.77.82-1.27,1.14-1.14s1-.18,1.51-.68a3.56,3.56,0,0,1,1.82-.87,2.86,2.86,0,0,0,1.69-.91,2.8,2.8,0,0,1,1.6-.92,1.35,1.35,0,0,0,1.09-1c.19-.82-.09-1.32-1.23-2.19-.77-.64-2.83-2.42-4.56-4a21.84,21.84,0,0,0-4-3.11c-1.23-.41-1.14-1,.23-1.41s1.55-1.1.5-1.1a2.18,2.18,0,0,1-1.27-.59c-.32-.32-1.28-1.05-2.06-1.65-1.46-1-1.5-1-1.5-.09A1.6,1.6,0,0,0,381,664c.6.36.6,1.14,0,1.14a2.12,2.12,0,0,1-1-.59c-.32-.32-2-1.56-3.75-2.79-2.64-1.92-3.28-2.14-4-1.69s-1,.32-1.6-1.28C369.54,655.85,365.15,653.34,363.37,654.52ZM344.43,765.88l8.76.27v3.1c0,3.06,0,3.11-1.32,3.34a3,3,0,0,0-2.06,1.73c-.91,1.83-.91,1.74.19,2.15.68.27.22.59-2.29,1.64-2.28,1-3.19,1.6-3.19,2.19s-.37.82-1.1.82c-1.09,0-7,3.06-10.68,5.53a16,16,0,0,1-7.12,2.88c-1.56.22-2.33.18-2.56-.19s-1.14-.41-3.65,0a22.77,22.77,0,0,1-3.38.41q0-1.58.09-3.15c.14-2.83.23-3,1.19-2.83s1.09,0,1.37-2.1c.41-3.11.41-3-.37-3.15-.36-.09-1,.41-1.37,1.14l-.68,1.28-.05-1.51c0-1,.23-1.46.69-1.46a1.55,1.55,0,0,0,1.09-.82c.46-.73.55-.69,1.33.27.91,1.19,2.37,1,2.37-.36,0-.6-.55-.92-2.15-1.19l-2.19-.41-.13-5.21-.14-5.2,9.27.32c5.11.14,13.24.41,18.08.55ZM353,796c-.23.87-.69,21.42-.73,31.23a28.76,28.76,0,0,1-.18,4.57,58,58,0,0,1-.78-6.08l-.59-5.84-1.46-.64c-2.15-.91-25.3-.91-27.85,0-2,.73-4.75.91-5.48.41-.32-.23-.41-3.15-.28-9l.19-8.72,1.91-.77a22.9,22.9,0,0,1,4.66-1.24,6.88,6.88,0,0,0,3.2-1.14,1.61,1.61,0,0,1,1.05-.68c1,0,2.78-1.46,2.78-2.33,0-.5.14-.87.37-.87a10.7,10.7,0,0,0,1.37-.27c.86-.23,1-.09,1,.91s.5,1.55,1.92,2.56c1.14.86,2.05,1.23,2.33,1,.54-.55-.05-2.33-.83-2.33-.32,0-.68-.41-.82-1-.23-.78-.09-.91.6-.73s1.27-.28,2.1-1.1c1.05-1.09,1.14-1.41.64-2s-1.37-.73-4.43-.59a22.05,22.05,0,0,1-3.79,0c0-.09,6.34-4.2,6.57-4.2s1.23-.73,2.56-1.6a17.83,17.83,0,0,1,2.74-1.6,12.3,12.3,0,0,0,2.1-.77,8.19,8.19,0,0,1,2.14-.69,6.41,6.41,0,0,0,2-.59c2.05-.87,2.19-.87,1.87,0a.75.75,0,0,0,.23,1c.59.36,2.33-1.51,2-2.1a2.51,2.51,0,0,1,.32-1.65c.5-1.09.59,0,.73,7.36,0,4.79,0,9.08-.09,9.58Z" transform="translate(-43.65 -142.71)"/><path d="M719.8,654.52a9,9,0,0,0-4.29,4.29c-.64,1.6-.82,1.74-1.6,1.24s-1.32-.19-4.33,2.1a43.5,43.5,0,0,1-4.16,2.83c-.77.32-1-.5-.23-1a1.44,1.44,0,0,0,.46-1.19c0-.91,0-.91-1.46.09a23.8,23.8,0,0,0-2.1,1.65,2.2,2.2,0,0,1-1.28.59c-1,0-.73.78.5,1.1s1.46,1,.23,1.41a20.56,20.56,0,0,0-4,3.11c-1.69,1.55-3.79,3.33-4.57,4-1.14.87-1.41,1.37-1.23,2.19a1.38,1.38,0,0,0,1.1,1,2.83,2.83,0,0,1,1.6.92,2.83,2.83,0,0,0,1.68.91,2.58,2.58,0,0,1,1.56.68,2.72,2.72,0,0,0,1.55.69c.46,0,1,.55,1.37,1.37.64,1.51.78,1.55,2.51.91,1.19-.45,2.51.18,2.51,1.28,0,.64-4.47,1-18,1.23-6.76.19-12.83.41-13.47.55s-6.16.32-12.33.37c-13.92.13-22.46.64-22.23,1.32.09.27.64.59,1.28.78s.13.32-1.69.36c-4,.05-4.34.6-3.88,5.53.27,2.55.27,4,0,4.15s-.27.41,0,.59.5,1.24.5,2.33a4.12,4.12,0,0,0,.46,2.29c.22.13.45-.37.45-1.37,0-1.42.09-1.56.82-1.19a25,25,0,0,1,2.93,2.51c2.1,2,3.1,2.56,3.1,1.69,0-.23-.73-.87-1.6-1.42-1.64-1-2.14-1.69-.91-1.23.5.23.59,0,.36-1.19-.3-1.73-.89-2.6-1.78-2.6A6.77,6.77,0,0,1,638,699c-1-.46-1-.69-.82-4.11a16.51,16.51,0,0,1,.59-4c.18-.22,5.89-.45,12.56-.5s12.37-.36,12.64-.59,5.44-.41,11.6-.41c9.54,0,11.28-.09,12-.73s1-.64,1.87-.14c1.24.68,15.85.59,16.53-.09.23-.23,2.51-.28,5-.14s9.91,0,16.44-.14c11.55-.36,11.82-.41,12.51-1.41.82-1.28,1.28-1.28,1.6-.05.27,1,.32,1,10,.69,13.34-.46,28.49-.87,33.7-.91l4.34-.05.13,6.85a65.8,65.8,0,0,0,.37,7.53,49.76,49.76,0,0,1,.18,6.71c0,5.25.09,6.26.91,7.86,1,2.1,1.24,3.69.19,1.73-.87-1.64-1.56-1.55-1.56.14,0,1,.28,1.5,1,1.78l1,.36-1,.23c-1,.28-1,.32-1,12.88,0,11,.1,12.55.69,12.32a1.15,1.15,0,0,0,.68-.91.67.67,0,0,1,.69-.64h0c.36,0,.68.41.68.91,0,.78.23.87,1.14.64,1.1-.27,1.15-.18,1.15,1.6,0,2.88,1.37,4.16,4.38,4.16h2.42l.14,4c.09,2.74-.05,4.38-.46,5.16l-.59,1.14.18-1.23c.18-1.15.09-1.28-1.23-1.15s-1.42-.09-1.65-1.23c-.27-1.46-1.78-2.74-2.14-1.78-.28.73-3.34.78-3.34.14,0-.28-.45-.46-1-.41-2.79.23-3.2,0-2.88-1.42.19-.77.09-1.37-.13-1.37s-.42-.68-.37-1.5c0-1.37-.05-1.47-1.55-1.47s-1.6.05-1.65,1.83.69,4.34,1.37,4.89c.28.18.23.54-.09.91a8,8,0,0,0-.64,3.19c-.13,2.2-.22,2.52-.86,2.15s-.83-1.14-.14-5.71c.18-1.18.09-2-.23-2.19a1.63,1.63,0,0,1-.5-1.23c0-.73-.32-.87-2.06-.87h-2v2.47a6.55,6.55,0,0,1-.37,2.74c-.41.23-.32,15.25.14,20.13.23,2.37.55,3.47,1.28,4.25,1,1.09,1,1.09.09,1.73s-.91.6-1.05-.14a7.22,7.22,0,0,0-.46-1.5c-.13-.37-.5-5.48-.77-11.28a104.59,104.59,0,0,0-.82-10.91c-.19-.14-.6-.05-1,.27-1,.83-1.46.14-.68-1,2.1-3.37,2.1-4.88-.09-5.61-1.74-.6-21.64,0-31.19,1-2.42.22-16.25,1-31.5,1.64-5,.23-10.91.55-13.1.69-3.84.22-4.89.63-3.29,1.27s68.12-1.09,71.27-1.78c1.28-.27,1.55-.18,2,.87.32.64.45,1.28.32,1.42s-6.26.36-13.65.5-13.65.5-14,.73-14.43.55-34.93.68c-18.9.14-34.7.41-35.06.6a38.39,38.39,0,0,1-6.3.09c-4.66-.14-5.53-.28-5.07-.82.73-.92.09-1.56-1.65-1.56-2,0-2.51.92-2.51,4.16,0,1.73-.22,2.51-.77,3-.78.59-.78.59,0,.64s.77.41.77,2.05c0,1.87-.09,2-1.09,2a1.18,1.18,0,0,1-1.33-1c-.5-1.92-1.46-.64-1.59,2.19-.14,2.51-.05,2.83.82,3.1a1.82,1.82,0,0,0,1.78-.41c1.19-1.09,1.41-.91,1.41,1.19,0,1.73,0,1.82-.59,1-.73-1-1.78-.55-1.37.55.23.59.09.68-.91.41l-1.19-.28.05,2.83c0,2.51.18,3,1.23,3.88l1.19,1-1,1.33c-1.33,1.78-1.6,3.19-.78,4,.59.6.59.78,0,1.37s-.68,2-.68,7.45c0,5.84.14,6.94,1,8.62.55,1.1,1.23,2,1.55,2,.69,0,1.1,1.05,1.1,2.65,0,1.18,0,1.18-.73.32-1.15-1.56-2.88-1.05-2.93.82,0,.64.23.73,1.15.5.63-.14,1.14-.09,1.14.18s.41.55.91.69c.91.23.91.64.91,22.87v22.65h6.85V859.2c0-1.19-.23-1.42-1.32-1.65s-1.37-.55-1.6-2c-.32-2-.41-90,0-90.3a10.85,10.85,0,0,1,3.15-.28l3,0,.14,7.3c.09,4,.14,25.52.14,47.8v40.55h4.79l.05-41.23c0-22.65.09-44.2.13-47.89l0-6.72H727l.32,9.91c.82,27.62,1.33,53,1.23,66.16,0,9.58.1,14.79.42,15a5,5,0,0,1,.45,2.56v2.24H780l-.22-8.68c-.14-4.79-.14-8.67,0-8.67,1,0,2,1,1.74,1.82a1.9,1.9,0,0,0,.32,1.6c.73.87,2.28.87,2.28,0a1.44,1.44,0,0,1,.87-1.1c.73-.41.86-.22,1.14,1.65.13,1.14.27,4.61.27,7.76v5.62l10.18-.1,10.14-.13.13-2.79c.14-2.6.05-2.83-.91-3.1s-1-.32-.18-1,.87-1.14.55-9c-.19-4.61-.51-9.49-.78-10.86s-.64-10.55-.87-20.32-.64-19.13-.91-20.77c-.68-4.38-1-12.42-.73-14.79a5.39,5.39,0,0,1,1.51-3.2c1-.87,1.14-1.46,1.09-3.29-.23-7.12.55-25.79,1.05-26.61.32-.51,2.65-.55,13.24-.37,8.95.18,11.78.14,9.41-.18a19.48,19.48,0,0,1-4.2-.87,9.27,9.27,0,0,0-3.15-.46c-2.29,0-2.33,0-2.06-1.14.37-1.46-.45-1.82-2.28-1.09-.73.27-1.05.59-.73.73,1,.36.59,1.05-.55,1.05a1.62,1.62,0,0,1-1.37-.69,1.33,1.33,0,0,0-2.42.23c-.32,1.19-.87,1.14-1.23-.14l-.32-1-.41,1c-.55,1.37-2.51,1.42-2.88.1-.23-.83-.5-.92-1.64-.64s-1.42.18-1.42-.64-.27-1-1.37-1S802,739.72,802,741c0,.91.23,1.37.69,1.37a.81.81,0,0,1,.68.87c0,1-2.14,5.29-2.64,5.25a11.62,11.62,0,0,1-2-.78c-1.74-.78-1.78-.91-1.92-3.88,0-.82-1.55-2.83-2.19-2.83-.18,0-.37.64-.37,1.41v1.46l-.91-1.18c-1-1.28-1.14-2.19-.41-2.92.55-.55.68-2,.77-9.18l.1-5.11,1.37.09c1.18.09,1.32.22,1.05,1.27-.14.64-.28,1.33-.32,1.6s2.74.51,7.26.6c11.87.22,13.69.18,15.7-.37,3.11-.82,3-2.19-.5-4.38a24.93,24.93,0,0,1-3.52-3c-2.46-2.56-4.11-3.61-5.75-3.61-1,0-1.23-.13-.68-.45s.5-.46.13-.46c-.77,0-3.33-2.69-3.33-3.47s.59-.82,1.83-.18c.5.27,1.32.68,1.82.91a4,4,0,0,0,1.51.46,3.61,3.61,0,0,1,1.69,1.14c.73.78,1.37,1,1.92.87a2.73,2.73,0,0,1,2,.45c1.51,1,1.78.92.68-.18a3.23,3.23,0,0,1-.91-2c0-1.1-1.28-2.56-3.06-3.47-.87-.46-1-.41-1,.13a1,1,0,0,1-1.78.55,4.69,4.69,0,0,0-2.33-.91c-2-.32-2.33-.87-1-1.6.73-.41.73-.5-.14-1.14-1.32-1.05-4.47-1.87-4.7-1.23-.09.27-.64.5-1.19.5a2.51,2.51,0,0,0-1.51.5c-.5.5-4.06-1.23-5.88-2.83a3.07,3.07,0,0,0-1.69-.87c-.51,0-.78-.36-.78-1.09,0-1.42,2.33-2,3.79-1s2.46.91,1.41-.27c-.73-.83-1.23-.92-3.15-.74l-2.28.23,0-7.76c0-10.41.91-9.59-11.65-9.54-5.38.05-10.95.23-12.46.5-1.83.28-3,.28-3.56,0s-1-.37-1.42,0-2.32.5-5,.5c-3.52,0-4.48-.14-4.48-.64s-.5-.78-1.09-.91c-.92-.23-1.1-.55-1-1.74s-.13-1.55-1.5-2c-2.1-.68-1.37-1,2.64-1.05,3.79,0,4.34-.27,3-1.23-.5-.37-1.65-1.32-2.6-2.15s-2.56-2.14-3.66-2.92-3.1-2.37-4.47-3.42c-2.28-1.83-2.65-2-4.84-1.83s-2.33.14-2.6-1.19c-.32-1.64-2.42-4.2-3.47-4.2a1.91,1.91,0,0,1-1.19-.41,6.27,6.27,0,0,0-2-.73c-1.37-.27-1.51-.18-1.74,1a2.85,2.85,0,0,1-1.23,1.78c-1,.41-1,.36-.87-1.87s-1.19-6.44-2.33-7.17A4.14,4.14,0,0,0,719.8,654.52ZM769,770.26l-.14,5.07-2,.5c-2.19.55-2.83,1.78-1,2,.64.09,1-.09,1-.5a.88.88,0,0,1,.55-.87c.82-.28,2.65,1.82,2.65,3.1v1.14l-1.1-1.27c-.59-.69-1.23-1.15-1.37-1a8.84,8.84,0,0,0,0,2.88c.27,2.46.41,2.6,1.37,2.42s1.1-.09,1.1,3v3.11l-1.92-.27a16.17,16.17,0,0,1-2.74-.69c-.87-.46-2.19-.09-2.19.59,0,1-5.8-.41-8.22-1.91-.37-.28-1.6-1-2.74-1.6-6.39-3.65-8.54-4.75-9.41-4.75a1.34,1.34,0,0,1-1.23-1,1.78,1.78,0,0,0-1.09-1.19,30.07,30.07,0,0,1-3-1.23c-1.91-.82-2.1-1-1.28-1.32,1.15-.41,1.15-.32.23-2.15a2.94,2.94,0,0,0-2-1.73c-1.33-.23-1.33-.28-1.33-3.38v-3.15l3.34,0c1.78,0,7.8-.23,13.33-.36s12.14-.37,14.75-.41l4.7-.09Zm-34.61,10.41c0,1.14.73,2.28,1.46,2.28.19,0,.37-.41.37-.91,0-1,.09-1.1,2.24-.37a38.53,38.53,0,0,1,9.63,4.29c1.64,1,4.16,2.61,5.62,3.52a24.12,24.12,0,0,1,2.6,1.78,28.33,28.33,0,0,1-3.79,0c-3.06-.14-3.93,0-4.43.59s-.41.92.69,2.06c.82.87,1.59,1.28,2.1,1.14s.73,0,.54.64a1.71,1.71,0,0,1-1.09,1.09c-.87.23-1.23,1.88-.46,2.33.23.14,1.23-.36,2.28-1.09,1.33-1,1.88-1.69,1.88-2.51,0-1.24.13-1.28,1.73-.87a1.37,1.37,0,0,1,1,1.14c0,.87,1.59,2.24,2.69,2.24a1.81,1.81,0,0,1,1.14.68,6.83,6.83,0,0,0,3.2,1.14,22.63,22.63,0,0,1,4.65,1.24l1.92.77.18,8.72c.14,4.75.14,8.77,0,8.91-.32.36-5,0-6.3-.46-2-.73-25.48-.59-27.35.18l-1.55.64-.32,4.06c-.91,11.14-1.28,5-1.19-19.26a49.93,49.93,0,0,0-.41-8,80.84,80.84,0,0,1-.55-10.59c-.13-9.14-.09-9.41.64-8A8.14,8.14,0,0,1,734.41,780.67Z" transform="translate(-43.65 -142.71)"/><path d="M453.63,695.52a2,2,0,0,0,.69,1.23c.36.32,1.23,1.1,1.92,1.74s2.1,1.78,3.05,2.51a39.39,39.39,0,0,1,3.66,3.29c2.19,2.28,3.28,2.55,2.78.73a3.37,3.37,0,0,0-1.14-1.83,3,3,0,0,1-1-1.83c-.14-1.27-.23-1.32-4-3.05A13.48,13.48,0,0,1,456,696C454.73,694.7,453.63,694.47,453.63,695.52Z" transform="translate(-43.65 -142.71)"/><path d="M630.37,695.93a14,14,0,0,1-3.66,2.33c-3.88,1.83-3.92,1.83-4.06,3.1a3,3,0,0,1-1,1.83A3.45,3.45,0,0,0,620.5,705c-.5,2,.6,1.5,3.38-1.28a17.75,17.75,0,0,1,2.83-2.51c.19,0,.41.73.41,1.64s.19,1.51.46,1.33a3.47,3.47,0,0,0,.46-2.15,3.51,3.51,0,0,1,1.41-3.15,5.81,5.81,0,0,1,1.83-1.32c.41,0,1.32-1.51,1.32-2.24S631.42,694.79,630.37,695.93Z" transform="translate(-43.65 -142.71)"/><path d="M610.69,705.11a3.49,3.49,0,0,1-1.92,1.14,5.24,5.24,0,0,0-2.42,1.55,9.87,9.87,0,0,1-3.29,2.15,18.37,18.37,0,0,0-3.51,1.64,28.82,28.82,0,0,1-3.88,2.06,6.25,6.25,0,0,0-2.51,1.59,4.79,4.79,0,0,1-1.92,1.33c-1.87.77-2.42,1.82-1.46,2.74s2.55.45,4.84-1.65a11.08,11.08,0,0,1,3.19-2,15,15,0,0,0,3.52-2,38.71,38.71,0,0,1,4.11-2.69c1.82-.92,6.62-5.62,6.62-6.49C612.06,703.74,611.88,703.83,610.69,705.11Z" transform="translate(-43.65 -142.71)"/><path d="M654.84,707.48a8.9,8.9,0,0,0,4.29,3.56,7.21,7.21,0,0,1,2.6,1.6,18.7,18.7,0,0,0,5.8,3.52,10.23,10.23,0,0,1,2.74,1.82,4.65,4.65,0,0,0,2.42,1.33c1.28.27,1.46.18,1.46-.69s-.46-1.18-1.69-1.73a6.11,6.11,0,0,1-2.33-1.55,2,2,0,0,0-1.14-.87,25.16,25.16,0,0,1-5.8-3,7.65,7.65,0,0,0-2.37-1.1,10.9,10.9,0,0,1-3.34-2.1C655.7,706.62,654.33,706.16,654.84,707.48Z" transform="translate(-43.65 -142.71)"/><path d="M615.94,708.9a26.64,26.64,0,0,0-2.7,2.05c-.5.41-1.91,1.46-3.1,2.29s-2.19,1.73-2.19,2-.18.6-.41.6c-.5,0-2.33,2.83-2.33,3.6,0,.28.32.51.68.51.78,0,.92.73.23,1.14a2,2,0,0,0-.45,1.41c0,1.1-.64,1.46-1.15.64-.32-.5-1.14-.18-1.14.46a2.16,2.16,0,0,0,.73,1.09c.78.83,5,1,5.44.28.18-.28-.23-.46-.87-.46-1.32,0-1.64-1.09-.46-1.55a11.48,11.48,0,0,1,2.74-.27c1.37,0,2.1-.23,2.28-.69a1.17,1.17,0,0,1,.83-.68c.86,0,3.37-3.79,3.56-5.3.13-1.23,0-1.32-1.33-1.28-2,.09-2.32-1.6-.5-3.33,1.28-1.19,2.42-3.24,2.06-3.61A5.64,5.64,0,0,0,615.94,708.9Z" transform="translate(-43.65 -142.71)"/><path d="M646.16,708.94a7.33,7.33,0,0,0,1.69,2.29c2,1.91,1.83,3.6-.32,3.51-1.37,0-1.46,0-1.32,1.28.18,1.51,2.69,5.3,3.56,5.3a1.15,1.15,0,0,1,.82.68c.18.46.91.69,2.28.69a11.48,11.48,0,0,1,2.74.27c1.19.46.87,1.55-.45,1.55-.64,0-1,.18-.87.46.46.73,4.66.55,5.43-.28a2.1,2.1,0,0,0,.73-1.09c0-.64-.82-1-1.14-.46-.5.82-1.14.46-1.14-.64,0-.64-.18-1.28-.46-1.41-.68-.41-.54-1.14.23-1.14,2.28,0-1.05-3.88-7.39-8.72a50.17,50.17,0,0,0-4.39-3.15C646,708.08,646,708.44,646.16,708.94Z" transform="translate(-43.65 -142.71)"/><path d="M470.89,710.68c-.68.18-.68.27.05,1a2.23,2.23,0,0,1,.64,2.06c-.23,1.09-.41,1.18-1.51,1-.73-.14-1.37-.1-1.51.09-.36.59,1,3.42,1.46,3.15.23-.14.32.09.23.5-.36,1.55,2.1,3.47,5.07,4s3.42.73,3.42,1.42c0,.32-.45.68-1,.77s-.27.32,1.14.55c1.78.32,2.33.23,3.06-.41,1.23-1.1,1.14-1.73-.18-1.41-.87.22-1.14,0-1.33-.78a10.67,10.67,0,0,0-.54-1.83c-.23-.55-.14-.77.41-.77s.73-.19.73-.41a10,10,0,0,0-2.61-3.38,1.21,1.21,0,0,1-.59-.92c0-.5-2.14-2.19-5-4A3.14,3.14,0,0,0,470.89,710.68Z" transform="translate(-43.65 -142.71)"/><path d="M481.3,711c1.46.6,4.43,2.56,4.66,3.15s2.83,1.78,3.24,1.51c.23-.14,1.41.73,2.6,1.87,2.65,2.51,4.43,2.92,4.66,1,.14-1-.09-1.32-1.33-1.73a4.76,4.76,0,0,1-2.05-1.37,4,4,0,0,0-2.24-1.14c-.86-.19-1.6-.46-1.6-.64,0-.55-2.69-1.88-3-1.46-.14.22-.73-.1-1.37-.74a3.54,3.54,0,0,0-3.06-1.05l-2,.05Z" transform="translate(-43.65 -142.71)"/><path d="M449.66,712.28c-.18.32-.32,6.8-.23,14.38.05,8.12-.09,14.24-.32,14.93-.41,1-.68,1.14-2,1a9.39,9.39,0,0,0-4,.73c-2.38.86-2.38.91-.64.64a19.12,19.12,0,0,1,4.47-.32c1.69.09,1.42,1.09-.45,1.55a2.25,2.25,0,0,0-1.65,1.28c-.23.91-.55.91-7.44.82-5.25-.09-7.21-.28-7.4-.73s.28-.55,1-.55a2,2,0,0,0,1.41-.46c.51-.82-15.79-.91-16.75-.09-.46.37-.82.37-1.14.05s-2.38-.37-7.08,0c-6.35.55-14.84.46-45.11-.32-6.39-.13-12.37-.32-13.24-.32-1.18,0-1.6.19-1.73.83-.23,1.09.73,2.1,1.23,1.27.27-.45,1.28-.5,4.06-.27,2.06.18,3.75.5,3.75.69,0,.59-9.45.5-9.82,0-.18-.32-.59-.27-1.19,0-1,.5-2.23.27-2.23-.46,0-.23.41-.5,1-.64s.86-.55.77-.87-4.33-.59-21.73-.59c-14.06,0-21.55.14-21.59.46s.36.54.82.63a2.67,2.67,0,0,1,1.28.78c.27.37,1.68.73,3.42.91a18,18,0,0,1,3.88.64c1.05.46,22.33,1.1,32.42,1,2.28,0,6.66.18,9.81.41s13,.64,21.92.87,16.48.41,16.8.46c1,.09.55,1-.55,1-1.32,0-2,.86-1.14,1.41,1.09.69,10.64.5,11.64-.23.69-.55.78-.77.32-1.23-1.19-1.19-1.46-1.14,10.55-.73,2.32.09,3.24.32,3.69.91.69,1,2.52,1.05,2.52.09s1.68-.86,2.19,0a2.91,2.91,0,0,0,2,1,2.34,2.34,0,0,0,2.74-1l1.18-1.23,9.27.05c7.53,0,9.41.18,10,.73.91.82,2.1.91,2.56.18a7.87,7.87,0,0,0,.63-2c.23-.78.73-2.47,1.24-3.7.82-2.24.86-2.28,2.55-2.15,1.51.14,1.74.28,1.56,1.05-.28,1,0,1.1,1.37.19s1.64-.37,1.87,4c.18,3.42.23,3.51,1.18,3s1-.46.14.41c-1,1.14-.77,2.79.6,4.7,1.82,2.56,2.83,1.33,2.69-3.15a11.13,11.13,0,0,1,.23-3.56,8.1,8.1,0,0,1,2.65-.45c3.1-.19,3.88-1,4.38-4.61.14-1.24.36-1.47,1-1.24s.87,0,.87-.41c0-.91,1.78-1,2.1,0,.45,1.14.95.77.73-.6s-.14-1.32,3-1.78l3.11-.45-3.15-.05L474.5,741l.36-8c.28-6.94.23-8-.36-8a3.52,3.52,0,0,0-1.83,1.37,3.76,3.76,0,0,1-1.64,1.37c-.78,0-1,2-.78,5.34.37,4.84.46,5.3,1.1,6.44.77,1.32.27,2-1.1,1.73-.77-.23-1.09-.09-1.09.32s.36.6,1.27.41l1.24-.23-1.1,1.24a9,9,0,0,1-1.28,1.18,2.83,2.83,0,0,1-.59-1.14c-.23-.64-.78-1.14-1.23-1.09-.73,0-.69.09.09.41.59.27.68.41.23.41s-.69.59-.78,1.87c-.09,2.6-.41,3.2-1.69,3.2a1.61,1.61,0,0,0-1.37.68c-.45,1.19-.91.78-2.42-2.19-1.69-3.24-1.78-3.74-.82-4.15a1.58,1.58,0,0,0,.68-1.42c0-1-.18-1.19-1-1.05a1.28,1.28,0,0,0-1.19,1.19c-.13.82-.36,1-1.05.86a4.74,4.74,0,0,0-2.46.42,10.69,10.69,0,0,1-1.83.63,29.79,29.79,0,0,1-.27-5.15c0-2.84-.18-7.49-.46-10.37s-.55-7.3-.68-9.81c-.32-4.57-.69-5.71-1.83-5.71A1.48,1.48,0,0,0,449.66,712.28Z" transform="translate(-43.65 -142.71)"/><path d="M626.94,712.73c-.14.6-.27,7.35-.27,15,0,11.78-.09,14.2-.73,15.39-.41.87-1.05,1.46-1.56,1.46a2.54,2.54,0,0,0-1.68,1.14c-.83,1.19-.87,1.19-7.81,1.19a56.62,56.62,0,0,1-7.22-.18c-.13-.14.69-.37,1.83-.51a5.55,5.55,0,0,0,2.33-.68c.23-.41-1.92-1-3.74-1-.64,0-1-.18-.83-.46s-2-.45-6.39-.45c-5.8,0-6.66.09-6.44.68s-.27.69-2.6.69c-1.55,0-4.88.23-7.39.5-2.83.27-10.64.32-20.64.14l-16.07-.32-4-3.93c-7-6.89-11.09-9.59-8.26-5.48,1.09,1.6,4.06,4.7,4.47,4.75a24.56,24.56,0,0,1,4.48,3.42l1.23,1.15-1,.13c-.73.09-2.56-1-6.26-3.83-2.87-2.15-5.15-4.07-5.06-4.25.32-.55-.64-2.33-1.28-2.33-.91,0-.41-1.73.64-2a2.38,2.38,0,0,1,1.18-.14c.83.23,3.89-1.09,3.7-1.6-.09-.32-1.28-.59-2.65-.68-3.65-.18-3.92-.37-2.46-1.78a2.7,2.7,0,0,0,1-2.24c-.13-.73.09-1.09.78-1.28,1.19-.32.55-1-1-1-2.47-.09-2.74-.18-3-1.28a6.22,6.22,0,0,0-2-2.37,6.08,6.08,0,0,0-4.38-1.37c-2.2-.05-2.74.09-3.11.82s-.32,1.09.32,1.78.73.87-.59.87c-1.51,0-3.11,1.41-2.74,2.46.18.46,1,.64,3.15.59,3.88,0,5.71.46,8,2.11,1.65,1.18,1.83,1.46,1.14,1.73a1.79,1.79,0,0,1-1.14.14c-.18-.14-.41,0-.59.27a2.28,2.28,0,0,1-1.64.46c-.78,0-1.33.13-1.33.32s-.59.36-1.28.41a15.66,15.66,0,0,0-2.55.36c-1.05.28-1.24.51-1.05,1.42.09.64,0,1.14-.19,1.14A3,3,0,0,0,519,735c-.92.91-.92.91-1.19,0-.59-1.87-2-.41-1.42,1.55.37,1.28,3.75,3.7,4.2,3,.19-.28,0-.78-.5-1.1-.77-.59-.77-.64,0-.91.5-.18,1.5.18,2.69,1,2.37,1.64,5.2,1.64,8.49,0,.78-.41,1.42-.54,1.42-.32A25.28,25.28,0,0,0,536,742l3.29,3.34-6.85-.28c-3.74-.14-7-.18-7.17-.09-.55.27-.41,1.87.14,2.24a.66.66,0,0,0,.82-.23c.41-.64,7.81-.18,7.81.46s-9.32.5-10-.14c-.36-.37-.68-.37-1.18.09-.73.59-2.1.32-2.1-.41,0-.23.41-.5,1-.64s.86-.55.77-.87-2.33-.64-9.68-.73l-9.49-.09-2.06-1.69c-1.41-1.14-1.82-1.78-1.41-2s.36-.59-.28-1.28c-1.09-1.23-2.1-1.23-2.1,0,0,.5.23.91.46.91s.46.32.46.73a3.88,3.88,0,0,0,.95,1.92l1,1.23-3.24.14-3.24.14v4.06h2.56c2.28,0,2.74.18,4.52,1.73a7.55,7.55,0,0,0,3,1.79,2.82,2.82,0,0,1,1.51.54c.37.37-1.37.51-5.71.51H493.4l-.27,2.14c-1,6.67-2.88,15-2.93,12.78a10,10,0,0,0-1-2.69,5.72,5.72,0,0,1-.73-3.29,2.57,2.57,0,0,0-.41-2c-.87-.87-1.19,0-1.33,3.24C486.37,774,485.87,782,485.5,782c-.18,0-.41,1.09-.41,2.37s-.18,1.92-.27,1.28a4.93,4.93,0,0,0-1-2c-.64-.73-.6-.87.36-1.92s1.1-1.42,1.24-10.18c0-4.93.22-10.09.36-11.41s.05-2.38-.18-2.38-.5-1.19-.6-2.65l-.13-2.6-1.69-.14c-1.51-.13-1.74,0-2.42,1.46a4.54,4.54,0,0,0-.46,3.11c.64,3.2.78,5.39.32,5.39s-.36.45-.09,1.32c.32,1.14.23,1.28-.46,1.1a1.53,1.53,0,0,1-.77-2.38.6.6,0,0,0,.17-.82.42.42,0,0,0-.17-.18c-.41-.41-.82-.18-1.69.77-.64.73-1.19,1.1-1.19.83a2,2,0,0,1,.69-1.1,1.93,1.93,0,0,0,.68-1.14,1.18,1.18,0,0,1,.69-.87c.82-.27.91-2.14.18-2.88a.91.91,0,0,1-.14-1.14,2.38,2.38,0,0,0,.28-1.41c-.1-.41,0-.78.27-.78.5,0,1-2.65.68-3.56a2.09,2.09,0,0,0-1.59-.55c-1.28,0-1.37.09-1.15,1.37.23,1,.1,1.46-.45,1.74s-.55.5-.18.73a1.67,1.67,0,0,1,.5,1.23c0,.73-.32.87-2.28.87-1.24,0-2.29.18-2.29.45,0,.78-3.06.55-3.38-.27-.41-1.09-1.27-.23-1,1,.23.77.09,1.09-.37,1.09a1.68,1.68,0,0,0-1.14.78c-.36.68-.55.73-1,.23-.91-.87-1.33-.64-1.33.68,0,1.1,0,1.14-.59.41s-.64-.73-1.41.14-.83,1.09-.28,2.1.5,1.28-1.05,2.69c-1.28,1.19-1.69,1.37-1.73.78-.09-1.14-.78,3.6-.83,5.75a3.27,3.27,0,0,0,1.15,3c1.09,1.05,1.23,1.51,1.59,6.72.23,3.51.23,5.88,0,6.43a7.72,7.72,0,0,0-.46,3,15.71,15.71,0,0,1-.5,3.79,78.21,78.21,0,0,0-.69,10.5c-.31,12.32-1,28.62-1.32,30.81-.23,1.6-1.09,16.3-1.28,22.37l-.09,2.29,10.41.13,10.36.1V855c0-3.15.14-6.62.28-7.76.27-1.87.41-2.06,1.14-1.65a1.44,1.44,0,0,1,.87,1.1c0,.87,1.55.87,2.28,0a2,2,0,0,0,.32-1.6c-.23-.86,1.05-2.14,1.6-1.6.13.14.13,4,.09,8.68l-.18,8.45h50.67v-2.24a4.85,4.85,0,0,1,.46-2.56c.23-.14.46-6.12.46-16.34,0-15,.45-38.9,1.18-64.1l.28-10.6H592.2l.09,6.72c0,3.69,0,25.24.09,47.89l0,41.23h4.84l-.1-36.44c-.09-20,0-41.54.14-47.89l.27-11.46,3.11.05,3.15.09v44.51c0,24.47-.14,45.25-.27,46.16-.23,1.41-.51,1.73-1.6,2s-1.33.46-1.33,1.65v1.37h6.85V837.92c0-22.23,0-22.64.92-22.87.5-.14.91-.46.91-.69s.41-.36.91-.23c1.1.28,1.55-.27,1.19-1.41s-2.28-1-2.47,0c-.27,1.42-1.05.78-.91-.68a2.29,2.29,0,0,1,1.28-2.06c.64-.31,1-.59.82-.59s.05-.68.55-1.55c.73-1.37.87-2.51.87-8.36,0-5.47-.14-6.89-.74-7.53s-.63-.87,0-1.46c.83-.82.55-2.24-.68-4-1-1.28-.73-2.51.5-2.83.69-.19.82-.73.92-3.24l.09-3.06-1.24.32c-1,.27-1.18.18-.95-.41.41-1.1-.64-1.51-1.37-.55-.55.77-.6.68-.6-1,0-2.1.23-2.29,1.42-1.19a1.81,1.81,0,0,0,1.78.41c.87-.27,1-.59.82-3.1-.14-2.83-1.1-4.11-1.6-2.19a1.19,1.19,0,0,1-1.32,1c-1,0-1.1-.18-1.1-2,0-1.64.14-2.05.82-2.05s.73,0,0-.64-.82-1.24-.82-3c0-3.24-.55-4.16-2.51-4.16-1.73,0-2.37.64-1.64,1.56.45.54-.41.68-5.07.82A45.71,45.71,0,0,1,592,761c-.37-.14-16.16-.46-35.11-.6-23.69-.18-34.56-.41-34.88-.73a3.61,3.61,0,0,0-2.15-.5,2.33,2.33,0,0,1-2.19-.91c-.55-.87-.45-.92,3.88-.92,2.47,0,13.7.23,25,.46s20.91.37,21.36.18c1.78-.54.64-1-3.15-1.28-2.23-.13-8.12-.45-13.15-.68s-13.56-.64-18.94-1-11.55-.59-13.7-.64a20.22,20.22,0,0,1-5.34-.77c-1.33-.6-5.85-4.43-5.53-4.75a33.47,33.47,0,0,1,3.75.32,20.11,20.11,0,0,0,5.48,0c2.05-.45,5-.36,13.51.32,3.15.28,9.22.64,13.51.82,6.94.28,8,.42,8.91,1.24l1,.91-.23-1.05c-.27-1-.22-1,4.11-1,5.94,0,12,.5,12,1,0,.23-.59.42-1.37.42-1.46,0-1.91,1.05-.63,1.55a39.93,39.93,0,0,0,5.61.27c3.52,0,5.16-.18,5.8-.64s.78-.77.32-1.23a1.86,1.86,0,0,1-.59-.87c0-.41,8.4,0,8.94.5a.65.65,0,0,0,.83.1,4.48,4.48,0,0,1,1.87-.46,3.29,3.29,0,0,1,2.69,1c1.33,1.37,3.33,1.37,3.11.05-.1-.51.18-.78.82-.78s.91.18.91.46c0,.54,2.42,1.82,3.42,1.82a3.1,3.1,0,0,0,1.74-1.05,6.08,6.08,0,0,1,1.92-1.41,74.61,74.61,0,0,1,9.08-.32c7.67,0,8.27.13,9.23,1,2,1.83,3,.91,4.56-4.29a11.37,11.37,0,0,1,1-2.6,9.67,9.67,0,0,1,1.32.77c1.14.73,1.19.73,1-.13-.09-.46.05-.87.28-.92s.36.37.32.87c-.19.91-.14.91,1,.18a9.21,9.21,0,0,1,1.33-.77,11.63,11.63,0,0,1,.95,2.6c1.6,5.2,2.61,6.12,4.57,4.29,1-.87,1.55-1,9.22-1a74.71,74.71,0,0,1,9.09.32,6.32,6.32,0,0,1,1.92,1.41,3.08,3.08,0,0,0,1.73,1.05c1,0,3.42-1.28,3.42-1.82,0-.28.42-.46.92-.46s.91.27.82.78c-.23,1.32,1.78,1.32,3.1-.05a3.31,3.31,0,0,1,2.7-1,4.53,4.53,0,0,1,1.87.46.64.64,0,0,0,.82-.1c.55-.45,8.95-.91,8.95-.5a2.15,2.15,0,0,1-.55.87c-.5.46-.41.68.28,1.23,1,.73,10.54.92,11.64.23.87-.55.18-1.41-1.14-1.41-1.1,0-1.6-.87-.51-1,.28-.05,7.86-.23,16.76-.46s18.76-.59,21.91-.87,7.58-.45,9.82-.41c9.63.14,31.87-.55,32.42-1a17.74,17.74,0,0,1,4-.68c2.47-.23,3.52-.5,3.52-.92s.46-.68,1.05-.77,1-.37.91-.59-7.71-.46-21.68-.46c-17.4,0-21.55.14-21.74.59s.23.73.78.87,1,.41,1,.64c0,.73-1.23,1-2.24.46-.59-.32-1-.37-1.19,0-.36.55-9.81.64-9.81,0,0-.19,1.69-.51,3.74-.69,2.79-.23,3.79-.18,4.07.27.5.83,1.46-.18,1.23-1.27-.14-.69-.55-.87-1.74-.83-39.12,1.24-68.3,1-67.7-.54.18-.51-1-.64-6.49-.64-4.33,0-6.57.18-6.39.45s-.36.46-1.23.51a11.26,11.26,0,0,0-2.65.41c-1.32.36-.91.64,2.06,1.32,1.5.32,1,.41-3.2.5-8.86.14-9.5.09-10.41-1.18a2.75,2.75,0,0,0-1.69-1.1c-.46,0-1.14-.59-1.55-1.46-.64-1.19-.73-3.61-.73-15.39,0-7.67-.14-14.42-.28-15s-.64-1-1.59-1H634v3.51a23.61,23.61,0,0,1-.45,4.89c-.28.78-.6,6.12-.83,11.92-.18,6.48-.5,10.5-.77,10.5s-.6-4-.78-10.5c-.23-5.8-.55-11.14-.82-11.92a23.62,23.62,0,0,1-.46-4.89v-3.51h-1.32C627.58,711.73,627.17,712,626.94,712.73Zm-96.19,79.12c-.64,18.81-.87,27.58-.87,33.74a52.62,52.62,0,0,1-.18,6.17,58,58,0,0,1-.78-6.08l-.59-5.84-1.47-.64c-1.87-.77-25.38-.91-27.39-.18-1.23.5-6,.77-6.25.41-.09-.09-.09-4.11,0-8.86l.19-8.72,1.91-.77a22.9,22.9,0,0,1,4.66-1.24,6.88,6.88,0,0,0,3.2-1.14,1.79,1.79,0,0,1,1.14-.68c1.09,0,2.69-1.37,2.69-2.33,0-.46.14-.87.37-.87a11.05,11.05,0,0,0,1.37-.27c.82-.23,1-.09,1,.86a3.22,3.22,0,0,0,1.55,2.33c1.6,1.19,3,1.56,3,.78s-.6-1.87-1.15-1.87c-.32,0-.68-.41-.82-1-.23-.78-.09-.91.6-.73.54.14,1.27-.28,2.1-1.1,1-1.09,1.14-1.41.63-2s-1.36-.73-4.42-.59a22.05,22.05,0,0,1-3.79,0,31.26,31.26,0,0,1,2.64-1.78l5.57-3.56A26.94,26.94,0,0,1,524.4,782a20.34,20.34,0,0,0,2.46-.69c.74-.32.83-.23.6.37a.92.92,0,0,0,.18,1c.64.36,1.78-.69,1.78-1.69a6.41,6.41,0,0,1,.6-2.1c.54-1.23.54-1.19.77,1.23C530.93,781.58,530.88,786.83,530.75,791.85Z" transform="translate(-43.65 -142.71)"/><path d="M544.49,714.7a1.81,1.81,0,0,0-.23,1.55c.32,1.09,2.33,1.6,5.16,1.23a7.91,7.91,0,0,1,3.51.46,15.82,15.82,0,0,0,4.43.64c1.6,0,4.34.09,6.07.18a9.44,9.44,0,0,0,3.79-.32c.32-.27.69-.32.83-.18.41.36,2.46-.32,2.32-.82s-.82-.6-5.79-.87c-2.83-.14-4.71-.46-11.51-1.92-2-.46-3.33-.55-3.88-.27a2.26,2.26,0,0,1-1.73,0C546,713.87,545.13,714,544.49,714.7Z" transform="translate(-43.65 -142.71)"/><path d="M237.5,722.23a9.07,9.07,0,0,1-2.42.91c-.32,0-.59.5-.59,1.1,0,.91-.28,1.09-1.83,1.37-1.19.18-1.82.55-1.82,1s-.51,1-1.15,1.41a2.28,2.28,0,0,0-1.14,2.06c0,1.5-.68,1.78-1.05.41-.13-.5-.5-.92-.77-.92s-.46.42-.28,1.19a2,2,0,0,1-.32,2c-.59.64-1,2.2-1.37,5.3-.13,1.32,1.42,1.42,4.61.27a17.88,17.88,0,0,1,5.16-1,7.39,7.39,0,0,0,3-.42A16.42,16.42,0,0,1,240,735.7c2.24-.82,2.92-1.69,3.38-4.43.23-1.6.37-1.69,1.55-1.46s1.51,0,2.65-1.51c1.51-1.87,1.64-3.24.64-5.75-.46-1.14-.68-1.28-2.42-1.19a6.65,6.65,0,0,0-2.56.55.74.74,0,0,1-1.05,0l0,0C241.38,721.09,239.51,721.23,237.5,722.23Z" transform="translate(-43.65 -142.71)"/><path d="M838,722.55c-1,2.51-.87,3.93.64,5.75,1.14,1.51,1.55,1.74,2.64,1.51s1.33-.14,1.56,1.46c.41,2.37,1.14,3.7,2.23,4a30,30,0,0,1,2.88,1.18c2,1,5,1,4.79,0-.09-.59,1-.13,2.65,1.1a7,7,0,0,0,2.51.82c1,.18,2.19.46,2.7.59.73.23.82,0,.54-1.27a23.57,23.57,0,0,1-.41-3,3,3,0,0,0-1-2.14c-.73-.55-.82-.78-.32-1.24.73-.77.68-1.32-.14-1.32a.7.7,0,0,0-.68.69c0,.36-.19.68-.46.68s-.46-.46-.46-1.05a3.53,3.53,0,0,0-1.14-2.15,3.37,3.37,0,0,1-1.14-1.68c0-.37-.55-.6-1.32-.6-2.19,0-2.83-.41-2.51-1.64.22-.87.09-1.1-.6-1.1a7.71,7.71,0,0,1-2.55-.91c-1.83-1-3.75-1.19-4.2-.41-.19.27-.87.32-1.69.18-1-.27-1.33-.18-1,.28s-.1.22-.73-.19C839.24,721,838.55,721.13,838,722.55Z" transform="translate(-43.65 -142.71)"/><path d="M561.38,723.46c0,.23-.59.37-1.28.41a15.68,15.68,0,0,0-2.55.37c-1,.27-1.24.5-1,1.41.09.64,0,1.14-.19,1.14a3.08,3.08,0,0,0-1.28,1l-.86,1-.32-1c-.6-1.91-2-.54-1.42,1.46.37,1.28,3.75,3.7,4.2,3,.18-.27,0-.77-.5-1.09-.78-.55-.78-.64,0-.92.46-.18,1.51.23,2.7,1,2.6,1.69,5.25,1.64,8.9-.23,1.51-.78,1.78-1.14,1.6-1.92a1.73,1.73,0,0,0-1-1.18c-.55-.14-.73-.51-.6-1.1a2.09,2.09,0,0,1,2.24-1.23c.87.22,3.84-1.1,3.84-1.74s-1.14-.64-6.17-.64C564.17,723.14,561.38,723.28,561.38,723.46Z" transform="translate(-43.65 -142.71)"/><path d="M484.22,727.71c0,.87,7.67,6.94,8.31,6.57a6.69,6.69,0,0,0,.37-2.74c0-2.1-.19-2.69-1.14-3.56s-1.65-1.05-4.34-1.09S484.22,727,484.22,727.71Z" transform="translate(-43.65 -142.71)"/><path d="M503.31,733.78a5.07,5.07,0,0,1-2.88.59l-2.28,0V738l7.44.14c7.44.09,7.44.09,7.3-.87a2.36,2.36,0,0,0-1.05-1.51,15.78,15.78,0,0,1-2.19-1.55C508.15,733.05,504.31,732.78,503.31,733.78Z" transform="translate(-43.65 -142.71)"/><path d="M576.67,734.1a7.22,7.22,0,0,1-2,1.51,2.48,2.48,0,0,0-1.33,1.59l-.14,1,7.45-.13,7.44-.14v-3.65l-2.28,0c-1.47,0-2.42-.18-2.65-.59s-1.28-.59-3-.59C578,733.19,577.31,733.37,576.67,734.1Z" transform="translate(-43.65 -142.71)"/><path d="M680.91,733.78a5.07,5.07,0,0,1-2.88.59l-2.28,0V738l7.44.14,7.44.13-.14-1a2.35,2.35,0,0,0-1.18-1.55,11.14,11.14,0,0,1-2.1-1.5C686,733,681.91,732.78,680.91,733.78Z" transform="translate(-43.65 -142.71)"/><path d="M668.58,739.4a32.17,32.17,0,0,1-4.25.22,21.17,21.17,0,0,0-4.93.51,36.49,36.49,0,0,1-6.66.59c-5.53.18-6.3.27-8.13,1-1.42.55,3.33.92,6.62.51,1.69-.23,5.89-.46,9.31-.6s6.71-.41,7.17-.68a5.54,5.54,0,0,1,1.83-.46c.55,0,1-.18,1-.41C670.5,739.67,668.85,739.08,668.58,739.4Z" transform="translate(-43.65 -142.71)"/><path d="M593.34,740c0,.27.41.5,1,.5a4.83,4.83,0,0,1,1.78.46,37.41,37.41,0,0,0,7.17.68c3.47.14,7.67.41,9.36.6,3.28.41,8,0,6.66-.51-.46-.18-1.19-.45-1.6-.59a17.81,17.81,0,0,0-3.79-.23,44.14,44.14,0,0,1-6.39-.41C601.79,739.72,593.34,739.4,593.34,740Z" transform="translate(-43.65 -142.71)"/><path d="M481.89,744a1.94,1.94,0,0,0,0,.68c0,.23-.63.41-1.41.41-1.33.09-1.37.09-.32.28a1.82,1.82,0,0,1,1.46,1c.23.91,1.42,1.14,7.76,1.69l3.52.32V746.7c0-1.14-.19-1.64-.69-1.64a.7.7,0,0,1-.68-.69c0-.55-.82-.68-4.8-.68C484.09,743.69,481.89,743.82,481.89,744Z" transform="translate(-43.65 -142.71)"/><path d="M230,744.6c-1.83.23-3.38,1.37-2.74,2a73.56,73.56,0,0,0,9.77,2,6.77,6.77,0,0,1,2.33.64c.27.23,1,0,2-.73a8.8,8.8,0,0,1,2.78-1.37c1.55-.36,1.55-.36.59-1.87-.77-1.14-.82-1.14-6.75-1C234.67,744.28,231.06,744.46,230,744.6Z" transform="translate(-43.65 -142.71)"/><path d="M841.43,745.33c-.68,1-.68,1.23-.14,1.6a3,3,0,0,0,1.37.41,4.27,4.27,0,0,1,1.92.91c1,.82,1.46.87,3.61.51,5.38-1,5.61-1.1,5.43-2.56a2.39,2.39,0,0,0-.68-1.69,27.79,27.79,0,0,0-5.62-.37C842.3,744.14,842.16,744.19,841.43,745.33Z" transform="translate(-43.65 -142.71)"/><path d="M428,767.34c-1.69.13-1.74.18-1.74,1.87a2.5,2.5,0,0,0,1.05,2.46c1,.64,1,.69.09.64s-.91.23-1,40.09c-.05,22.1-.23,41.23-.37,42.5-.27,2.15-.41,2.38-1.64,2.65S423,858,423,859.2v1.37h6.85V837.92c0-22.23,0-22.64.92-22.87.5-.14.91-.46.91-.69s.46-.36,1-.27c.82.09,1-.09,1-1,0-1.41-1.46-1.55-2.6-.22-.77.91-.82.91-.82-.23a2.15,2.15,0,0,1,1.51-2.42,1.14,1.14,0,0,0,.77-.87,5.7,5.7,0,0,1,.69-1.87c.45-.92.64-3,.64-8.08,0-5.71-.1-6.94-.73-7.54-.46-.5-.6-.86-.28-1.05.82-.54.55-3-.5-4.33l-1-1.33,1.28-1c1.09-.91,1.23-1.28,1.23-3.84s-.45-3.51-1.14-2.37c-.5.82-1.23.5-1-.46s-.51-1.73-.87-.73c-.55,1.42-1.1.69-1.1-1.41s.05-2.06.82-1.37c1,.91,2.65,1,3,.18a12.83,12.83,0,0,0,0-3c-.23-2.37-.78-3.06-1.33-1.6a5,5,0,0,1-1.09,1.65c-.82.77-.87.73-1.1-.23-.09-.59-.27-1.69-.32-2.42C429.66,767.29,429.57,767.2,428,767.34Z" transform="translate(-43.65 -142.71)"/><path d="M613.24,773.32c-.5,3.19-.27,12.55.42,14.42.54,1.56.54,1.88,0,2.2-1.37.77-.69,10.36.77,10.36.69,0,.37,1.14-.5,1.69s-.87,1.28-1,6.39A33.5,33.5,0,0,0,613,815a12.52,12.52,0,0,1,0,4c-.91,7.26-1,7.8-.36,8.76a1.37,1.37,0,0,1,0,1.78c-.36.55-.36,1-.09,1.28.55.55.05,7-.55,7-.23,0-.41-.41-.41-.87,0-.78-.82-1.42-1.87-1.42-.87,0-.37,1.33,1,2.42a3.7,3.7,0,0,1,1.37,2.1c0,.92-.23,1-2.51,1.15-.83,0-.92.41-1,3.33,0,1.83.09,3.33.37,3.33s.41-.45.41-1c0-.82.09-.91.73-.36s.77.45,1.14-.09.46-.55.87,0a8,8,0,0,1,.73,2.28,15.82,15.82,0,0,0,1.14,3.29,7.74,7.74,0,0,1,.87,2.38c0,.77,1.37,1.37,1.91.82a7.75,7.75,0,0,0,.51-3c.09-2-.09-2.73-.73-3.19s-.69-.69-.1-1.19c1-.77.92-4.47-.09-5.57-.68-.73-.68-.87,0-1.64.51-.55.78-2.1,1-5.8.14-2.83.46-5.07.73-5.16s.46.23.46.78c0,1.37.73,1.59,5.34,1.69s4.93-.05,4.79-2.15a2.79,2.79,0,0,1,.69-2c.73-.73.73-1,0-3.65a25.3,25.3,0,0,1-.78-4.89,13.84,13.84,0,0,0-.5-3.56c-.64-2.05-.64-13.51,0-15.2.28-.73.32-1.23,0-1.23s-.32-.6-.19-1.33c.23-1,.1-1.46-.68-1.82-1.1-.64-1.28-1.65-.27-2.06,1.18-.45.77-1.64-.69-2s-1.64-.46-.64-1.55c1.51-1.69-1.09-3.75-3.42-2.7-3.24,1.51-3.47,1.74-3.56,3.38a2.7,2.7,0,0,0,.41,1.92c.45.32,1.5-.69,1.87-1.78.23-.73,2.37.91,2.37,1.87a1.73,1.73,0,0,0,1,1.23A2.09,2.09,0,0,1,625,798c-.78.73-.92.69-2.7-1.19-1.18-1.23-2.19-1.87-2.6-1.68-1,.31-1.28,3.83-.45,4.79s.77,2.51.09,2.92a.86.86,0,0,0-.28.91c.14.28-.13.87-.59,1.28-.78.64-.87.64-1.05-.18A2.69,2.69,0,0,0,616,803.5c-1.37-.51-1.55-1.6-.32-2s1.51-2.42,1.65-9.49a35.49,35.49,0,0,1,.41-6.26c.23-.41.59-.36,1.32.09a5.35,5.35,0,0,0,5.3.46,4.3,4.3,0,0,0,2.1-1.46c.32-.91-1.37-2.33-2.83-2.38a1.58,1.58,0,0,1-1.28-.5c-.23-.27-.59-.13-1,.46-.87,1.28-2.88,1.28-2.88,0a6.35,6.35,0,0,0-.69-2.28c-.54-1.05-.63-2.19-.41-4.88l.28-3.56-2.06,0C613.56,771.67,613.52,771.72,613.24,773.32Z" transform="translate(-43.65 -142.71)"/><path d="M646.48,775.55c.28,3,.18,3.93-.36,4.75a4,4,0,0,0-.73,2.06c0,1.37-2,1.46-2.88.09-.41-.59-.78-.73-1-.46a1.59,1.59,0,0,1-1.28.5c-1.46,0-3.15,1.47-2.83,2.38a4.25,4.25,0,0,0,2.1,1.46,5.34,5.34,0,0,0,5.29-.46c.69-.41,1.1-.45,1.33-.13a50.53,50.53,0,0,1,.41,6.25c.13,7.17.5,9.27,1.64,9.54s1.14,2,0,2a2,2,0,0,0-1.47,2.51c.14.23-.32-.09-1-.78s-1.14-1.41-1-1.69a.51.51,0,0,0-.13-.7l-.06,0c-.68-.41-.54-2.56.19-3.15s.45-4.25-.51-4.56c-.41-.19-1.41.45-2.6,1.68-1.78,1.88-1.92,1.92-2.69,1.19-1-.87-.64-3.15.41-3.15.68,0,1.78-1.73,1.37-2.14-.14-.14.32-.55,1-.92s1.32-.45,1.41-.23c.32,1.05,1.37,2,1.83,1.74a2.81,2.81,0,0,0,.41-1.92c-.09-1.64-.32-1.87-3.56-3.38-2.33-1.05-4.93,1-3.43,2.7,1,1.09.92,1.28-.64,1.55s-1.87,1.51-.68,2c1,.41.82,1.42-.27,2.06-.73.36-.92.77-.69,1.78.14.77,0,1.37-.27,1.46s-.32.5.09,1.28c.82,1.55.77,12.87-.14,15.29a8,8,0,0,0-.41,3.33,16.92,16.92,0,0,1-.64,4.62c-.77,3-.77,3.19,0,4a2.06,2.06,0,0,1,.55,2c-.23,1.28.64,2.56,1.46,2.06a3.33,3.33,0,0,1,1.74.09,12.52,12.52,0,0,0,4.06-.09c2.33-.41,2.74-.64,2.87-1.56.37-2.51.92-.59,1.24,4.11.23,3.66.55,5.39,1.05,5.94.64.73.64.91-.05,1.64-1,1.1-1,4.8-.09,5.57.59.5.59.64,0,1.23-.78.74-1,5.85-.27,6.26a1.37,1.37,0,0,0,1.87-.91,7.49,7.49,0,0,1,.87-2.38,17.07,17.07,0,0,0,1.14-3.29,7.69,7.69,0,0,1,.73-2.28c.41-.59.5-.59.87,0s.54.54,1.14.09.73-.46.73.36c0,.51.18,1,.41,1s.41-1.5.36-3.33c-.09-2.92-.18-3.29-1-3.33-2.28-.14-2.51-.23-2.51-1.15a3.93,3.93,0,0,1,1.37-2.1c1.32-1.09,1.82-2.42,1-2.42-1.05,0-1.88.64-1.88,1.42,0,.46-.18.87-.41.87-.59,0-1.09-6.44-.54-7,.27-.27.27-.73-.1-1.28a1.38,1.38,0,0,1,.05-1.78c.59-1,.55-1.5-.37-8.76a12.67,12.67,0,0,1,0-4,35.06,35.06,0,0,0,.14-6.58c-.19-5.11-.32-5.93-1.05-6.39-1.1-.69-1.1-1,0-2.47.78-.95.91-1.87.91-5.2,0-3.06-.18-4.11-.68-4.38s-.55-.64,0-2.19c.68-1.88.91-11.24.41-14.43-.27-1.6-.32-1.65-2.33-1.6l-2,0Z" transform="translate(-43.65 -142.71)"/><path d="M618,836.87c0,2.51.55,4.06,1.42,4.06,1.32,0,1.09,1.69-.28,2-2,.5-1.46,1.92,2.06,4.93,1.14,1,1.46,1,3.38-.09l1.6-.87.68,1c.59.82.78.87,1.42.37s.68-1.1.41-2.92a5.49,5.49,0,0,0-.78-2.65c-.27-.18-.37-.5,0-.91a6.32,6.32,0,0,0,.73-4.62l-.27-1.73-5.16.14-5.21.09Z" transform="translate(-43.65 -142.71)"/><path d="M302.24,850.38c-.14.46-.59,1.6-1,2.52a6.2,6.2,0,0,0-.41,3.51c.14,1.05.09,1.92-.18,2.1a1.61,1.61,0,0,0-.46,1.19c0,.73.32.87,2,.87,2.24,0,2.65-.51,2-2.29-.41-1-.5-4.38-.23-7.3C304.16,849.61,302.65,849.11,302.24,850.38Z" transform="translate(-43.65 -142.71)"/><path d="M479.89,850.16c-1.6,4.24-1.92,5.66-1.56,6.39a1.7,1.7,0,0,1,0,1.69c-1,1.78-.6,2.33,1.55,2.33s2.65-.51,2-2.29c-.41-1-.5-4.38-.23-7.3C481.71,849.74,480.3,849.06,479.89,850.16Z" transform="translate(-43.65 -142.71)"/><path d="M782.17,850a6.17,6.17,0,0,0,.14,2.51c.32,1.78.22,3-.41,6.44-.28,1.32.09,1.6,2.1,1.6s2.1,0,1.82-1.28a10.44,10.44,0,0,1-.32-2.15c.09-2.65,0-3.33-.59-4.56a20,20,0,0,1-.91-2.2A1.05,1.05,0,0,0,782.17,850Z" transform="translate(-43.65 -142.71)"/><path d="M618.81,850.57c-1.09.59-1,.86.37,2.92,1.19,1.78,1.23,2.46.41,5.8l-.32,1.28h4.06c2.56,0,4.25-.19,4.62-.55.73-.73.73-7.72,0-8.68S620.05,849.84,618.81,850.57Z" transform="translate(-43.65 -142.71)"/><path d="M638.08,850.43a3.44,3.44,0,0,0-2.14.87c-.78,1-.78,8-.05,8.72.37.36,2.05.55,4.61.55h4.06l-.32-1.28c-.86-3.52-.82-4.2.46-6.08,1-1.41,1.19-1.91.73-2.37S641.51,850.16,638.08,850.43Z" transform="translate(-43.65 -142.71)"/></svg>